<svg width="30" height="27" viewBox="0 0 30 27" fill="none" xmlns="http://www.w3.org/2000/svg">
<g id="60e4a1e738075610afe7fbd3_icon-newsletter-crypto-template.svg" clip-path="url(#clip0_89_930)">
<path id="Vector" opacity="0.4" d="M29.2466 19.5602C29.2466 23.6229 25.9848 26.914 21.922 26.9285H21.9074H7.47659C3.42837 26.9285 0.122818 23.652 0.122818 19.5893V19.5748C0.122818 19.5748 0.131555 13.1296 0.143205 9.8882C0.144661 9.27951 0.84363 8.93875 1.31981 9.31734C4.77971 12.0622 10.9671 17.0672 11.0442 17.1327C12.0782 17.9613 13.3887 18.4287 14.7284 18.4287C16.0681 18.4287 17.3787 17.9613 18.4126 17.1167C18.4897 17.0657 24.5388 12.2108 28.0511 9.42077C28.5287 9.04069 29.2306 9.38145 29.232 9.98865C29.2466 13.2054 29.2466 19.5602 29.2466 19.5602Z" fill="#0328EE"/>
<path id="Vector_2" d="M28.4837 4.61016C27.2226 2.23366 24.7412 0.716309 22.0094 0.716309H7.47666C4.74488 0.716309 2.26353 2.23366 1.00247 4.61016C0.719968 5.14167 0.853938 5.80424 1.32429 6.17994L12.1365 14.8282C12.8937 15.4399 13.8111 15.7442 14.7285 15.7442C14.7344 15.7442 14.7387 15.7442 14.7431 15.7442C14.7475 15.7442 14.7533 15.7442 14.7576 15.7442C15.675 15.7442 16.5925 15.4399 17.3496 14.8282L28.1619 6.17994C28.6322 5.80424 28.7661 5.14167 28.4837 4.61016Z" fill="#0328EE"/>
</g>
<defs>
<clipPath id="clip0_89_930">
<rect width="29.7543" height="26.2121" fill="white" transform="translate(0.12281 0.716553)"/>
</clipPath>
</defs>
</svg>
