<svg width="84" height="3" viewBox="0 0 84 3" fill="none" xmlns="http://www.w3.org/2000/svg">
<path d="M82.4275 2.86653L83.3877 2.86653L83.3877 0.945987L82.4275 0.945987L82.4275 2.86653ZM7.31297 2.86652C7.84331 2.86652 8.27324 2.43659 8.27324 1.90625C8.27324 1.37591 7.84331 0.94598 7.31297 0.94598L7.31297 2.86652ZM20.9701 0.945981C20.4398 0.945981 20.0099 1.37591 20.0099 1.90625C20.0099 2.43659 20.4398 2.86652 20.9701 2.86652L20.9701 0.945981ZM34.6273 2.86652C35.1577 2.86652 35.5876 2.4366 35.5876 1.90625C35.5876 1.37591 35.1577 0.945983 34.6273 0.945983L34.6273 2.86652ZM48.2845 0.945984C47.7542 0.945984 47.3242 1.37591 47.3242 1.90625C47.3242 2.4366 47.7542 2.86652 48.2845 2.86652L48.2845 0.945984ZM61.9417 2.86653C62.472 2.86653 62.902 2.4366 62.902 1.90626C62.902 1.37591 62.472 0.945985 61.9417 0.945985L61.9417 2.86653ZM75.5989 0.945986C75.0685 0.945986 74.6386 1.37591 74.6386 1.90626C74.6386 2.4366 75.0685 2.86653 75.5989 2.86653L75.5989 0.945986ZM0.484375 2.86652L7.31297 2.86652L7.31297 0.94598L0.484375 0.94598L0.484375 2.86652ZM20.9701 2.86652L34.6273 2.86652L34.6273 0.945983L20.9701 0.945981L20.9701 2.86652ZM48.2845 2.86652L61.9417 2.86653L61.9417 0.945985L48.2845 0.945984L48.2845 2.86652ZM75.5989 2.86653L82.4275 2.86653L82.4275 0.945987L75.5989 0.945986L75.5989 2.86653Z" fill="white" fill-opacity="0.5"/>
</svg>
