<svg width="19" height="18" viewBox="0 0 19 18" fill="none" xmlns="http://www.w3.org/2000/svg">
<path d="M16.893 13.7475C16.893 14.0175 16.833 14.295 16.7055 14.565C16.578 14.835 16.413 15.09 16.1955 15.33C15.828 15.735 15.423 16.0275 14.9655 16.215C14.5155 16.4025 14.028 16.5 13.503 16.5C12.738 16.5 11.9205 16.32 11.058 15.9525C10.1955 15.585 9.33295 15.09 8.47795 14.4675C7.61545 13.8375 6.79795 13.14 6.01795 12.3675C5.24545 11.5875 4.54795 10.77 3.92545 9.915C3.31045 9.06 2.81545 8.205 2.45545 7.3575C2.09545 6.5025 1.91545 5.685 1.91545 4.905C1.91545 4.395 2.00545 3.9075 2.18545 3.4575C2.36545 3 2.65045 2.58 3.04795 2.205C3.52795 1.7325 4.05295 1.5 4.60795 1.5C4.81795 1.5 5.02795 1.545 5.21545 1.635C5.41045 1.725 5.58295 1.86 5.71795 2.055L7.45795 4.5075C7.59295 4.695 7.69045 4.8675 7.75795 5.0325C7.82545 5.19 7.86295 5.3475 7.86295 5.49C7.86295 5.67 7.81045 5.85 7.70545 6.0225C7.60795 6.195 7.46545 6.375 7.28545 6.555L6.71545 7.1475C6.63295 7.23 6.59545 7.3275 6.59545 7.4475C6.59545 7.5075 6.60295 7.56 6.61795 7.62C6.64045 7.68 6.66295 7.725 6.67795 7.77C6.81295 8.0175 7.04545 8.34 7.37545 8.73C7.71295 9.12 8.07295 9.5175 8.46295 9.915C8.86795 10.3125 9.25795 10.68 9.65545 11.0175C10.0455 11.3475 10.368 11.5725 10.623 11.7075C10.6605 11.7225 10.7055 11.745 10.758 11.7675C10.818 11.79 10.878 11.7975 10.9455 11.7975C11.073 11.7975 11.1705 11.7525 11.253 11.67L11.823 11.1075C12.0105 10.92 12.1905 10.7775 12.363 10.6875C12.5355 10.5825 12.708 10.53 12.8955 10.53C13.038 10.53 13.188 10.56 13.353 10.6275C13.518 10.695 13.6905 10.7925 13.878 10.92L16.3605 12.6825C16.5555 12.8175 16.6905 12.975 16.773 13.1625C16.848 13.35 16.893 13.5375 16.893 13.7475Z" stroke="white" stroke-miterlimit="10"/>
<path d="M14.2905 6.75C14.2905 6.3 13.938 5.61 13.413 5.0475C12.933 4.53 12.2955 4.125 11.6655 4.125" stroke="white" stroke-linecap="round" stroke-linejoin="round"/>
<path d="M16.9155 6.75C16.9155 3.8475 14.568 1.5 11.6655 1.5" stroke="white" stroke-linecap="round" stroke-linejoin="round"/>
</svg>
