<svg width="28" height="34" viewBox="0 0 28 34" fill="none" xmlns="http://www.w3.org/2000/svg">
<path d="M14 6.5L14.7955 5.7045C14.3561 5.26517 13.6439 5.26517 13.2045 5.7045L14 6.5ZM14 18.5L13.2045 19.2955C13.6439 19.7348 14.3561 19.7348 14.7955 19.2955L14 18.5ZM10.2045 8.7045C9.76517 9.14384 9.76517 9.85616 10.2045 10.2955C10.6438 10.7348 11.3561 10.7348 11.7955 10.2955L10.2045 8.7045ZM16.2045 10.2955C16.6439 10.7348 17.3561 10.7348 17.7955 10.2955C18.2348 9.85616 18.2348 9.14384 17.7955 8.7045L16.2045 10.2955ZM11.7955 14.7045C11.3561 14.2652 10.6438 14.2652 10.2045 14.7045C9.76517 15.1439 9.76517 15.8561 10.2045 16.2955L11.7955 14.7045ZM17.7955 16.2955C18.2348 15.8561 18.2348 15.1439 17.7955 14.7045C17.3561 14.2652 16.6439 14.2652 16.2045 14.7045L17.7955 16.2955ZM0.875 14V20H3.125V14H0.875ZM27.125 20V14H24.875V20H27.125ZM12.875 6.5V18.5H15.125V6.5H12.875ZM13.2045 5.7045L10.2045 8.7045L11.7955 10.2955L14.7955 7.2955L13.2045 5.7045ZM13.2045 7.2955L16.2045 10.2955L17.7955 8.7045L14.7955 5.7045L13.2045 7.2955ZM14.7955 17.7045L11.7955 14.7045L10.2045 16.2955L13.2045 19.2955L14.7955 17.7045ZM14.7955 19.2955L17.7955 16.2955L16.2045 14.7045L13.2045 17.7045L14.7955 19.2955ZM27.125 14C27.125 6.75127 21.2488 0.875 14 0.875V3.125C20.0061 3.125 24.875 7.99391 24.875 14H27.125ZM14 33.125C21.2488 33.125 27.125 27.2488 27.125 20H24.875C24.875 26.0061 20.0061 30.875 14 30.875V33.125ZM0.875 20C0.875 27.2488 6.75127 33.125 14 33.125V30.875C7.99391 30.875 3.125 26.0061 3.125 20H0.875ZM3.125 14C3.125 7.99391 7.99391 3.125 14 3.125V0.875C6.75127 0.875 0.875 6.75127 0.875 14H3.125Z" fill="white"/>
</svg>
