<svg width="19" height="18" viewBox="0 0 19 18" fill="none" xmlns="http://www.w3.org/2000/svg">
<path d="M9.7664 9C11.8375 9 13.5164 7.32107 13.5164 5.25C13.5164 3.17893 11.8375 1.5 9.7664 1.5C7.69534 1.5 6.0164 3.17893 6.0164 5.25C6.0164 7.32107 7.69534 9 9.7664 9Z" stroke="white" stroke-linecap="round" stroke-linejoin="round"/>
<path d="M3.32391 16.5C3.32391 13.5975 6.2114 11.25 9.7664 11.25C10.4864 11.25 11.1839 11.3475 11.8364 11.5275" stroke="white" stroke-linecap="round" stroke-linejoin="round"/>
<path d="M17.2664 13.5C17.2664 13.74 17.2364 13.9725 17.1764 14.1975C17.1089 14.4975 16.9889 14.79 16.8314 15.045C16.3139 15.915 15.3614 16.5 14.2664 16.5C13.4939 16.5 12.7964 16.2075 12.2714 15.7275C12.0464 15.5325 11.8514 15.3 11.7014 15.045C11.4239 14.595 11.2664 14.0625 11.2664 13.5C11.2664 12.69 11.5889 11.9475 12.1139 11.4075C12.6614 10.845 13.4264 10.5 14.2664 10.5C15.1514 10.5 15.9539 10.8825 16.4939 11.4975C16.9739 12.03 17.2664 12.735 17.2664 13.5Z" stroke="white" stroke-miterlimit="10" stroke-linecap="round" stroke-linejoin="round"/>
<path d="M15.3839 13.4854H13.1489" stroke="white" stroke-miterlimit="10" stroke-linecap="round" stroke-linejoin="round"/>
<path d="M14.2664 12.3901V14.6326" stroke="white" stroke-miterlimit="10" stroke-linecap="round" stroke-linejoin="round"/>
</svg>
