<svg xmlns="http://www.w3.org/2000/svg" width="512.001" height="512.001" shape-rendering="geometricPrecision" text-rendering="geometricPrecision"
fill="white"
 image-rendering="optimizeQuality" 
fill-rule="evenodd" clip-rule="evenodd" viewBox="0 0 13546.68 13546.68"><path d="M6773.34 0c1870.35 0 3563.84 758.32 4789.43 1983.91 1225.71 1225.59 1983.91 2919.21 1983.91 4789.43 0 1870.35-758.2 3563.84-1983.91 4789.43-1225.59 1225.71-2919.08 1983.91-4789.43 1983.91-1870.22 0-3563.84-758.32-4789.43-1983.91C758.32 10337.18 0 8643.69 0 6773.34 0 4903.12 758.32 3209.5 1983.91 1983.91 3209.5 758.32 4903.12 0 6773.34 0zM5387.4 8870.68c-17.01 63.18-41.08 109.47-70.25 139.51-20.97 20.97-54.24 39.09-99.16 53.11l-630.98 192.5c38.97-73.23 72.23-123.24 101.27-151.42 28.92-26.93 79.18-54.11 150.3-81.16-55.1-35.25-94.2-67.15-118.15-97.43-25.2-30.03-37.24-60.19-37.24-89.24 0-25.07 8.19-54.11 23.09-86.25 16.13-32.15 36.11-64.04 61.18-95.2 127.34-169.65 252.82-253.8 377.05-253.8 37.11 0 66.4 12.04 89.36 35.99 21.97 25.2 33.02 56.22 33.02 95.44 0 31.15-3.98 58.09-12.91 80.3-9.06 23.09-27.06 55.98-54.24 101.15-96.31-48.03-162.46-72.11-197.46-72.11-35.12 0-69.25 8.94-104.38 26.19-22.96 11.91-45.17 27.93-64.28 47.04 0 26.06 47.28 65.16 140.36 118.4 93.34 53.12 161.6 79.31 201.68 79.31 26.07 0 96.44-14.15 211.74-42.33zm5.95-1865.75c0 174.75-21.09 334.23-62.17 478.57-42.08 144.59-122.38 338.08-241.65 580.71l-177.48-72.1c48.03-250.83 72.11-454.5 72.11-611.99 0-119.15-10.18-294.89-29.16-525.49-19.99-231.71-44.06-460.45-74.1-687.2-29.29-225.63-77.32-496.56-144.59-809.45-22.96-110.21-35-185.42-35-226.5 0-60.44 30.04-163.7 91.23-310.15 60.19-146.33 145.45-322.94 254.67-530.57l178.6 1041.28c66.15 396.16 111.45 739.21 137.51 1029.13 19.98 223.65 30.03 438.23 30.03 643.76zm501.04 1715.33V7895.8h824.47v824.46h-824.47zm3065.28-860.58H7626.72c-129.19 0-228.86-27.3-297.86-82.29-84.27-67.26-126.59-176.48-126.59-326.9 0-87.38 5.08-180.58 14.14-280 8.94-100.15 21.97-201.55 40.09-303.82l120.51-6.08c15.89 69.25 50.14 119.27 104.26 151.41 53.12 31.16 118.27 47.29 194.6 47.29h1006.91c-44.93-288.93-123.36-518.66-234.57-691.3-92.34-143.34-220.67-266.71-385.11-371.09l213.59-917.67c252.69 190.51 432.28 435.26 537.65 735.23 97.3 276.89 145.33 644.26 145.33 1100.24v944.98zm3132.18-889.38c-12.41 339.57-56.72 670.2-129.32 989.66l1010.38 270.81c95.19-406.59 151.42-828.07 164.57-1260.47h-1045.63zm-230.97 1369.94c-98.92 321.69-227.62 630.35-382.76 922.88l905.89 522.88c199.69-371.21 363.64-764.4 487.26-1175.08l-1010.39-270.68zm-579.22 1262.45c-179.09 284.83-384.37 551.42-612.49 796.42l740.2 738.33c291.66-309.66 552.79-648.48 778.17-1011.87l-905.88-522.88zm-889.63 1073.06c-243.01 225.38-507.61 428.43-788.97 605.66l523 905.88c361.79-224.51 699.37-484.53 1008.03-774.7l-742.06-736.84zm-1129.16 802.5c-292.03 154.76-600.94 283.71-922.63 382.63l270.81 1010.39c410.68-123.49 803.74-287.44 1174.83-487.14l-523.01-905.88zm-1302.78 484.28c-319.84 72.97-650.96 116.91-989.66 129.32v1045.63c432.27-13.15 853.88-69.38 1260.34-164.57l-270.68-1010.38zm-1383.71 129.32c-339.32-12.41-670.08-56.72-989.66-129.32l-270.69 1010.38c406.59 95.19 828.07 151.42 1260.35 164.57v-1045.63zm-1369.81-230.97c-321.82-99.04-630.11-227.62-922.64-382.63l-523 905.76c371.09 199.57 764.15 363.64 1174.83 487.26l270.81-1010.39zm-1262.83-579.47c-282.97-177.98-547.95-381.89-791.7-608.14l-739.33 739.32c308.67 290.3 646.25 550.06 1008.03 774.58l523-905.76zm-1070.2-886.65c-226.5-244-430.67-509.6-608.39-792.2l-905.89 523.13c224.64 361.91 484.53 699.61 774.95 1008.4l739.33-739.33zm-804.86-1131.64c-154.89-292.28-283.72-601.07-382.76-922.88L675.41 8611.05c123.62 410.68 287.69 803.98 487.39 1175.07l905.88-523zm-484.4-1303.16C1511.42 7640 1467.36 7309 1454.95 6970.3H409.2c13.15 432.4 69.38 854.01 164.57 1260.47l1010.51-270.81zm-129.33-1383.71c12.41-339.19 56.72-669.82 129.33-989.53L573.89 5315.91c-95.19 406.46-151.54 828.07-164.69 1260.34h1045.75zm230.97-1369.81c99.04-321.94 227.75-630.48 382.88-922.76l-906-523c-199.82 371.09-363.77 764.27-487.39 1174.95l1010.51 270.81zm579.35-1262.32c177.98-283.1 381.89-548.2 608.39-792.08l-739.45-739.45c-290.29 308.79-550.31 646.37-774.95 1008.4l906.01 523.13zm887.02-1070.46c243.88-226.5 509.23-430.54 791.58-608.14l-523.13-906.01c-361.78 224.52-699.36 484.28-1008.03 774.58l739.58 739.57zm1131.76-804.98c292.04-154.77 601.07-283.59 922.52-382.63L4935.76 675.41c-410.56 123.62-803.74 287.57-1174.83 487.26l523.12 906.01zm1302.79-484.28c319.84-72.85 650.84-116.91 989.54-129.32V409.2c-432.28 13.15-853.88 69.38-1260.35 164.57l270.81 1010.63zm1383.59-129.32c339.19 12.41 669.95 56.59 989.53 129.32l270.81-1010.63c-406.46-95.19-828.07-151.42-1260.34-164.57v1045.88zm1369.81 230.97c321.69 98.91 630.11 227.74 922.51 382.63l523.13-906.01a6327.72 6327.72 0 00-1174.83-487.26l-270.81 1010.64zm1262.7 579.47c282.97 177.97 547.82 381.76 791.57 608.14l739.58-739.57c-308.66-290.17-646.24-550.06-1008.03-774.58l-523.12 906.01zm1068.09 884.29c229.61 246.98 433.65 512.82 610.63 794.18l905.88-522.88c-224.52-361.9-484.65-699.73-774.95-1008.52l-52.87 52.87-686.58 686.58-2.11-2.23zm807.09 1133.75c372.21 701.59 584.69 1482.62 613.73 2292.69h1045.63c-13.15-432.4-69.25-853.75-164.57-1260.22l-1010.38 270.69c-29.29-128.58-63.17-255.42-101.65-380.28l1010.39-270.68c-123.62-410.68-287.57-803.99-487.26-1175.08l-905.89 522.88zM6773.34 1819.34c2736.14 0 4954.25 2218.11 4954.25 4954 0 2736.14-2218.11 4954.25-4954.25 4954.25-2736.02 0-4954.12-2218.11-4954.12-4954.25 0-2735.89 2218.1-4954 4954.12-4954z"/></svg>