<svg xmlns="http://www.w3.org/2000/svg" width="512.001" height="512.001" shape-rendering="geometricPrecision" text-rendering="geometricPrecision" image-rendering="optimizeQuality"
fill="white"
 fill-rule="evenodd" clip-rule="evenodd" viewBox="0 0 13546.66 13546.66"><path d="M6773.39 0c1870.33 0 3563.8 758.31 4789.38 1983.89 1225.71 1225.58 1983.89 2919.18 1983.89 4789.51 0 1870.33-758.18 3563.8-1983.89 4789.38-1225.58 1225.71-2919.05 1983.89-4789.38 1983.89s-3563.93-758.31-4789.51-1983.89C758.3 10337.2-.01 8643.73-.01 6773.4S758.3 3209.47 1983.88 1983.89C3209.46 758.31 4903.06 0 6773.39 0zm-704.57 8496.53l-150.67-665.36h-945.96l-152.41 665.36h-970.41l996.35-3493.31h1177.55l1007.65 3493.31h-962.1zm2059.85-42.7l-41.71-2.48c-96.3-5.83-191.37-14.89-284.83-27.43-93.45-12.53-182.93-26.31-268.32-41.7-85.64-15.51-168.67-33.76-249.46-54.86v-707.3c104 9.06 216.57 16.51 337.2 22.72 120.76 6.33 243.63 10.92 367.62 13.77 123.98 2.98 239.28 4.72 346.26 4.72 7.2-.25 14.89.12 22.34.12 77.2 0 154.39-7.82 230.22-23.08 56.1-10.18 108.48-36.12 150.92-74.34 32.52-34.38 50.76-79.93 50.76-127.34 0-3.35-.49-6.7-.49-10.18v-53.61c.24-3.72.49-7.32.49-11.17 0-55.48-26.81-107.73-71.61-140.24-47.16-33.02-103.26-50.52-160.6-50.52H8307.26c-354.95 0-623.9-77.81-807.46-234.07-183.18-156.38-274.65-417.75-274.28-784.87v-151.41c0-336.34 101.15-588.28 303.2-755.21 149.68-124.35 349.74-202.42 599.95-233.82v-360.29h495.44v350.24c62.3 3.23 124.61 8.44 181.57 14.52 124.61 13.78 246.11 30.9 357.44 50.51 111.45 19.36 212.22 41.58 300.96 61.81v707.42c-140.49-11.91-299.1-21.96-475.09-29.91-176.23-7.94-336.21-11.79-479.93-11.29h-13.78c-72.1 0-144.33 6.33-215.2 18.37-58.46 7.82-112.82 33.26-156.01 73.35-36.11 39.96-55.72 91.59-55.72 145.33 0 4.96.12 10.3.74 15.02v46.41c-.12 4.97-.74 9.68-.74 14.65 0 61.06 26.68 119.02 72.85 159.23 58.33 39.34 127.46 60.44 197.95 60.44 9.31 0 18-.37 26.81-.99h303.08c12.28-.37 25.32-.62 37.35-.62 173.14 0 343.91 41.95 497.06 122.12 137.52 76.58 249.59 192.74 321.32 332.86 70.74 141.24 107.98 297.87 107.98 455.98 0 6.45-.13 12.78-.13 18.62v151.78c0 290.67-50.63 512.45-151.53 665.6-100.41 152.66-254.55 263.11-431.28 309.53-139.38 38.23-282.97 62.8-426.94 71.98v394.18l-494.2-.13v-394.42zM5755.69 7088.26l-145.95-677.52c-15.39-75.21-35.12-161.59-56.97-260.13-22.09-98.67-43.31-197.34-63.66-296.75-19.61-99.53-35-186.04-46.55-259.39-11.41 71.74-25.93 154.77-44.05 250.21-18.74 96.31-37.36 193.36-58.58 291.16-20.48 98.67-40.84 189.14-59.58 269.94l-148.43 682.48h623.77zm6336.16-117.91c-12.41 339.57-56.72 670.19-129.32 989.65l1010.37 270.81c95.2-406.59 151.42-828.06 164.57-1260.46h-1045.62zm-230.97 1369.92c-98.91 321.69-227.61 630.35-382.75 922.88l905.88 522.87c199.69-371.21 363.64-764.39 487.25-1175.07l-1010.38-270.68zm-579.21 1262.44c-179.09 284.83-384.37 551.42-612.48 796.41l740.18 738.33c291.66-309.65 552.79-648.47 778.17-1011.86l-905.87-522.88zm-889.62 1073.05c-243.01 225.39-507.61 428.43-788.96 605.66l522.99 905.87c361.78-224.51 699.36-484.52 1008.02-774.69l-742.05-736.84zm-1129.15 802.49c-292.03 154.77-600.94 283.72-922.63 382.63l270.81 1010.38c410.68-123.49 803.73-287.44 1174.82-487.13l-523-905.88zm-1302.78 484.28c-319.83 72.98-650.95 116.91-989.64 129.32v1045.62c432.27-13.15 853.87-69.37 1260.33-164.57l-270.69-1010.37zm-1383.82 129.32c-339.31-12.41-670.06-56.72-989.64-129.32l-270.69 1010.37c406.59 95.2 828.06 151.42 1260.33 164.57v-1045.62zm-1369.79-230.97c-321.82-99.03-630.11-227.61-922.63-382.63l-523 905.76c371.09 199.56 764.14 363.64 1174.82 487.25l270.81-1010.38zm-1262.82-579.46c-282.96-177.98-547.94-381.89-791.69-608.14l-739.32 739.32c308.66 290.29 646.24 550.05 1008.02 774.57l522.99-905.75zm-1070.19-886.64c-226.5-244-430.66-509.59-608.39-792.19l-905.87 523.12c224.64 361.9 484.52 699.61 774.94 1008.39l739.32-739.32zm-804.85-1131.63c-154.89-292.28-283.72-601.06-382.75-922.88L675.4 8611.08c123.61 410.68 287.68 803.98 487.37 1175.07l905.88-523zM1584.25 7960c-72.85-319.95-116.91-650.95-129.32-989.65H409.18c13.16 432.4 69.38 854 164.57 1260.46L1584.25 7960zm-129.32-1383.82c12.41-339.19 56.72-669.82 129.32-989.52L573.88 5315.85c-95.2 406.46-151.54 828.06-164.7 1260.33h1045.75zm230.97-1369.8c99.03-321.94 227.74-630.47 382.87-922.75l-906-523C962.96 4131.72 799.01 4524.9 675.4 4935.58l1010.5 270.8zm579.34-1262.31c177.97-283.1 381.88-548.19 608.38-792.07l-739.44-739.44c-290.29 308.78-550.3 646.36-774.94 1008.39l906 523.12zm887.01-1070.45c243.87-226.5 509.22-430.53 791.57-608.13l-523.12-906c-361.78 224.51-699.36 484.27-1008.02 774.56l739.57 739.57zM4284 2068.65c292.03-154.77 601.06-283.59 922.51-382.63L4935.7 675.4c-410.55 123.61-803.73 287.56-1174.82 487.25l523.12 906zm1302.78-484.28c319.83-72.85 650.83-116.91 989.52-129.32V409.18c-432.27 13.16-853.87 69.38-1260.33 164.57l270.81 1010.62zm1383.7-129.32c339.19 12.41 669.94 56.6 989.52 129.32l270.81-1010.62c-406.46-95.19-828.06-151.41-1260.33-164.57v1045.87zm1369.79 230.97c321.69 98.91 630.11 227.74 922.51 382.63l523.12-906A6326.63 6326.63 0 008611.08 675.4l-270.81 1010.62zm1262.69 579.47c282.97 177.97 547.82 381.76 791.57 608.13l739.57-739.57c-308.66-290.16-646.24-550.05-1008.02-774.56l-523.12 906zm1068.09 884.28c229.6 246.97 433.64 512.82 610.62 794.17l905.87-522.87c-224.51-361.9-484.65-699.73-774.94-1008.51l-52.87 52.87-686.57 686.57-2.11-2.23zm807.08 1133.74c372.21 701.59 584.68 1482.61 613.72 2292.67h1045.62c-13.15-432.4-69.25-853.75-164.57-1260.21l-1010.37 270.69c-29.29-128.58-63.17-255.42-101.65-380.28l1010.38-270.68c-123.61-410.68-287.56-803.98-487.25-1175.07l-905.88 522.88zm-4704.74-2464.2c2736.12 0 4954.2 2218.09 4954.2 4954.08 0 2736.12-2218.08 4954.2-4954.2 4954.2s-4954.2-2218.08-4954.2-4954.2c0-2735.99 2218.08-4954.08 4954.2-4954.08z"/></svg>