<svg xmlns="http://www.w3.org/2000/svg" shape-rendering="geometricPrecision" text-rendering="geometricPrecision" image-rendering="optimizeQuality" 
fill="white" fill-rule="evenodd" clip-rule="evenodd" viewBox="0 0 512 512"><path d="M256 0c70.69 0 134.7 28.66 181.02 74.98C483.35 121.3 512 185.31 512 256c0 70.69-28.65 134.7-74.98 181.02C390.7 483.35 326.69 512 256 512c-70.69 0-134.7-28.66-181.02-74.98C28.66 390.7 0 326.69 0 256c0-70.69 28.66-134.7 74.98-181.02C121.3 28.66 185.31 0 256 0zm-7.53 241.55h38.92v30.74h-34.41c-.44 7.22-1.76 13.75-3.99 19.57-1.8 4.43-4.77 9.02-8.98 13.79 4.78-1.05 8.9-1.57 12.31-1.57 4.38 0 10.07.83 17.08 2.49 9.59 2.19 17.25 3.29 22.99 3.29 4.68 0 8.75-.39 12.21-1.18 3.51-.79 8.06-2.45 13.66-5l17.48 38.36c-8.45 4.21-15.9 7.14-22.34 8.76-6.39 1.62-13.26 2.41-20.62 2.41-8.06 0-17.21-1.4-27.59-4.2-13.57-3.72-21.98-5.87-25.26-6.48-3.24-.57-6.75-.88-10.51-.88-11.04 0-23.21 3.85-36.52 11.56l-16.64-36.52c18.04-12.88 27.06-25.75 27.06-38.62 0-.7-.09-2.63-.26-5.78h-26.8v-30.74h19.18c-3.24-11.26-5.13-17.82-5.52-19.62-.52-2.71-.79-6.09-.79-10.12 0-10.68 2.85-20.27 8.54-28.76 5.65-8.5 13.14-14.68 22.42-18.48 9.28-3.86 21.77-5.78 37.48-5.78 14.72 0 26.37 1.66 34.95 4.95 8.58 3.28 15.85 8.75 21.76 16.37 5.96 7.67 10.03 16.91 12.26 27.76l-49.13 7.67c-2.45-9.11-5.3-15.16-8.49-18.13-3.2-2.98-6.84-4.47-10.91-4.47-4.95 0-8.93 1.62-12 4.86-3.06 3.24-4.59 7.84-4.59 13.8 0 3.19.31 6.21.91 9.15.58 2.98 2.63 9.89 6.14 20.8zm208.55 21.9c-.47 12.83-2.15 25.33-4.89 37.4l38.19 10.24c3.59-15.37 5.72-31.3 6.22-47.64h-39.52zm-8.73 51.77a199.868 199.868 0 01-14.47 34.88l34.24 19.77a239.561 239.561 0 0018.42-44.42l-38.19-10.23zm-21.89 47.72a202.32 202.32 0 01-23.15 30.1l27.97 27.9a240.984 240.984 0 0029.41-38.24l-34.23-19.76zm-33.63 40.55a202.44 202.44 0 01-29.82 22.9l19.77 34.23a241.637 241.637 0 0038.1-29.28l-28.05-27.85zm-42.67 30.33a200.32 200.32 0 01-34.88 14.47l10.24 38.18a237.985 237.985 0 0044.4-18.41l-19.76-34.24zm-49.24 18.31a201.248 201.248 0 01-37.41 4.89v39.51c16.34-.49 32.28-2.62 47.64-6.22l-10.23-38.18zm-52.31 4.89c-12.82-.47-25.32-2.15-37.4-4.89l-10.23 38.18c15.37 3.6 31.3 5.73 47.63 6.22v-39.51zm-51.77-8.73a200.865 200.865 0 01-34.87-14.47l-19.77 34.24a239.717 239.717 0 0044.41 18.41l10.23-38.18zm-47.73-21.9a202.827 202.827 0 01-29.92-22.99l-27.94 27.94a241.775 241.775 0 0038.1 29.28l19.76-34.23zm-40.44-33.52a202.747 202.747 0 01-23-29.94L51.37 382.7a241.996 241.996 0 0029.29 38.12l27.95-27.95zM78.19 350.1a199.23 199.23 0 01-14.47-34.88l-38.19 10.24a239.07 239.07 0 0018.42 44.41l34.24-19.77zm-18.31-49.25a201.14 201.14 0 01-4.89-37.4H15.47c.49 16.34 2.62 32.27 6.22 47.64l38.19-10.24zm-4.89-52.3a201.65 201.65 0 014.89-37.4l-38.19-10.24c-3.6 15.37-5.73 31.3-6.22 47.64h39.52zm8.73-51.77c3.74-12.17 8.61-23.83 14.47-34.88l-34.24-19.77a239.07 239.07 0 00-18.42 44.41l38.19 10.24zm21.9-47.71c6.72-10.7 14.43-20.72 22.99-29.94L80.66 91.18a241.537 241.537 0 00-29.29 38.12l34.25 19.77zm33.52-40.46c9.22-8.56 19.25-16.27 29.92-22.99l-19.77-34.24a241.775 241.775 0 00-38.1 29.28l27.95 27.95zm42.78-30.43a201.643 201.643 0 0134.86-14.46l-10.23-38.19a239.036 239.036 0 00-44.41 18.41l19.78 34.24zm49.23-18.3c12.09-2.75 24.6-4.42 37.4-4.89V15.47c-16.33.49-32.27 2.62-47.63 6.22l10.23 38.19zm52.3-4.89c12.82.47 25.32 2.14 37.4 4.89l10.24-38.19c-15.36-3.6-31.3-5.73-47.64-6.22v39.52zm51.77 8.73c12.16 3.74 23.82 8.61 34.87 14.46l19.77-34.24a238.66 238.66 0 00-44.4-18.41l-10.24 38.19zm47.73 21.9a202.67 202.67 0 0129.92 22.99l27.95-27.95a242.236 242.236 0 00-38.1-29.28l-19.77 34.24zm40.37 33.43c8.67 9.33 16.39 19.38 23.08 30.01l34.23-19.76a240.806 240.806 0 00-29.29-38.12l-1.99 2-25.95 25.95-.08-.08zm30.5 42.85c14.07 26.51 22.1 56.03 23.2 86.65h39.52c-.5-16.34-2.62-32.27-6.22-47.63l-38.19 10.23c-1.11-4.86-2.39-9.65-3.84-14.37l38.19-10.23a239.561 239.561 0 00-18.42-44.42l-34.24 19.77zM256 68.76c103.42 0 187.25 83.83 187.25 187.24 0 103.42-83.83 187.25-187.25 187.25-103.41 0-187.24-83.83-187.24-187.25 0-103.41 83.83-187.24 187.24-187.24z"/></svg>