<svg width="48" height="48" viewBox="0 0 48 48" fill="none" xmlns="http://www.w3.org/2000/svg">
<path d="M24 0C10.8099 0 0.0793388 10.6623 0 23.8216C0 23.8811 0 23.9207 0 23.9802V24C0 24.1189 0 24.218 0 24.3369C0 24.3964 0 24.436 0 24.4955C0.257851 37.4963 10.9289 48 24 48C37.1107 48 47.8017 37.4368 48 24.3964C48 24.3171 48 24.218 48 24.1387C48 24.0991 48 24.0595 48 24.0198C48 10.7614 37.2298 0 24 0ZM45.957 24.218C45.957 24.2775 45.957 24.3369 45.957 24.3964C45.957 24.5747 45.957 24.7531 45.9372 24.9315C45.9372 25.0702 45.9174 25.2089 45.9174 25.3675C45.9174 25.4269 45.9174 25.4864 45.8975 25.5458C45.1041 36.9216 35.5835 45.9389 24 45.9389C12.714 45.9389 3.3719 37.3774 2.18182 26.398C2.14215 26.0017 2.10248 25.6053 2.08264 25.2089C2.08264 25.1495 2.08264 25.1098 2.08264 25.0504C2.08264 25.0306 2.08264 25.0107 2.08264 24.9909C2.08264 24.9711 2.08264 24.9513 2.08264 24.9116C2.08264 24.8324 2.08264 24.7333 2.08264 24.654C2.08264 24.6144 2.08264 24.5747 2.08264 24.5351C2.08264 24.4756 2.08264 24.3964 2.08264 24.3369C2.08264 24.3171 2.08264 24.3171 2.08264 24.2973C2.08264 24.2775 2.08264 24.2378 2.08264 24.218C2.08264 24.1387 2.08264 24.0793 2.08264 24C2.08264 11.9108 11.9207 2.06111 24.0397 2.06111C36.1388 2.06111 45.9967 11.891 45.9967 24C45.957 24.0595 45.957 24.1387 45.957 24.218Z" fill="white"/>
<path d="M23.9999 3.44775C12.5949 3.44775 3.35193 12.6831 3.35193 24.0786C3.35193 24.5146 3.37176 24.9506 3.3916 25.3668C3.86763 33.2149 8.74697 39.8739 15.5701 42.9259C14.261 41.4593 13.8643 39.1802 14.4197 36.0886C14.6577 34.8598 14.9949 33.4923 15.4313 31.9862C15.6891 31.1141 15.9271 30.262 16.185 29.4098C16.3635 28.7954 16.542 28.2009 16.7205 27.6063C17.1371 26.1992 17.4941 24.9308 17.7718 23.821C18.0494 22.7112 18.1288 21.9184 18.0098 21.4428C17.6924 20.769 17.1966 20.5312 16.5222 20.7293L16.2842 20.3132C17.4346 19.4015 18.7635 18.7871 20.2511 18.4701C21.7387 18.153 23.1271 18.153 24.3966 18.4701C25.1106 18.6682 25.7651 18.9457 26.3602 19.2826C26.9552 19.6195 27.4313 20.115 27.7883 20.769C28.1453 21.423 28.3437 22.2554 28.3833 23.2661C28.423 24.2768 28.2247 25.5254 27.7883 26.9919C27.7486 27.1108 27.6494 27.4279 27.5106 27.9432C27.3718 28.4585 27.1932 29.0927 26.9751 29.8458C26.9156 30.0241 26.8759 30.2025 26.8164 30.3809C26.6379 30.9754 26.4594 31.5898 26.2809 32.224C26.0428 33.0563 25.8247 33.8491 25.6263 34.5824C25.428 35.3156 25.2494 35.9498 25.0908 36.4849C24.9321 37.02 24.8528 37.3371 24.8528 37.4164C24.6147 38.2487 24.6742 38.9424 25.0709 39.4973C25.4478 40.0522 25.9833 40.4288 26.6577 40.6269C27.3718 40.8251 28.0858 40.7459 28.78 40.3495C29.4742 39.9729 30.109 39.4577 30.6643 38.8235C31.2197 38.1893 31.7156 37.4957 32.1321 36.7624C32.5486 36.0291 32.8461 35.3751 33.0048 34.8202L33.8379 34.9985H33.8974C33.342 36.9804 32.6875 38.6253 31.9536 39.9135C31.2197 41.2017 30.3866 42.252 29.4544 43.0448C28.7007 43.679 27.8676 44.1744 26.9751 44.5113C36.2775 43.2033 43.5767 35.712 44.5883 26.3181C44.6676 25.5848 44.7073 24.8317 44.7073 24.0786C44.6478 12.6831 35.4048 3.44775 23.9999 3.44775ZM30.4858 14.546C29.3751 15.6558 28.0065 16.2108 26.38 16.2108C25.5866 16.2108 24.8329 16.0522 24.1387 15.7549C23.4445 15.4577 22.8296 15.0415 22.2941 14.5262C21.7585 14.0109 21.342 13.3966 21.0445 12.6831C20.747 11.9696 20.5883 11.2165 20.5883 10.4238C20.5883 9.63107 20.747 8.87798 21.0445 8.18434C21.342 7.49069 21.7585 6.87633 22.2941 6.34123C22.8296 5.80614 23.4445 5.38995 24.1387 5.09268C24.8329 4.7954 25.5866 4.63685 26.38 4.63685C27.1734 4.63685 27.9271 4.7954 28.6412 5.09268C29.3552 5.38995 29.9701 5.80614 30.4858 6.34123C31.0015 6.87633 31.418 7.49069 31.7156 8.18434C32.0131 8.87798 32.1718 9.63107 32.1718 10.4238C32.1519 12.0687 31.5966 13.4362 30.4858 14.546Z" fill="white"/>
</svg>
