<svg width="44" height="60" viewBox="0 0 44 60" fill="none" xmlns="http://www.w3.org/2000/svg">
<path d="M12 10H8C8.15407 8.89366 8.70209 7.88001 9.54343 7.14521C10.3848 6.41041 11.463 6.0038 12.58 6.00003H13.04C13.6963 4.17372 14.9204 2.6057 16.5329 1.52591C18.1454 0.446112 20.0614 -0.0886517 22 2.8532e-05C23.9286 -0.0756069 25.8311 0.465269 27.4315 1.54417C29.0318 2.62306 30.2468 4.18385 30.9 6.00003H31.36C32.4874 5.98926 33.5801 6.38931 34.434 7.12543C35.2879 7.86156 35.8445 8.8834 36 10H32V15.86C31.8843 15.9469 31.7446 15.9958 31.6 16H12.4C12.267 16.0126 12.133 16.0126 12 16V10Z" fill="#1A297A"/>
<path d="M37.56 10.0001H36V10.6401V16.0001C35.943 17.1125 35.4485 18.1574 34.6242 18.9067C33.8 19.656 32.7129 20.049 31.6 20.0001H12.4C11.2871 20.049 10.2 19.656 9.37579 18.9067C8.55154 18.1574 8.057 17.1125 8 16.0001V10.6401C8 10.4201 8 10.2201 8 10.0001H6.44C4.79151 9.94601 3.18867 10.5468 1.98189 11.6712C0.775106 12.7955 0.0625517 14.3519 0 16.0001V54.0001C0.0625517 55.6483 0.775106 57.2046 1.98189 58.329C3.18867 59.4533 4.79151 60.0541 6.44 60.0001H37.56C39.2085 60.0541 40.8113 59.4533 42.0181 58.329C43.2249 57.2046 43.9374 55.6483 44 54.0001V16.0001C43.9374 14.3519 43.2249 12.7955 42.0181 11.6712C40.8113 10.5468 39.2085 9.94601 37.56 10.0001ZM14 46.4201V47.8001C14.0002 47.8498 13.9819 47.8979 13.9487 47.9349C13.9154 47.9718 13.8695 47.9951 13.82 48.0001H12C11.82 48.0001 11.82 47.8401 11.82 46.4001C10.6611 46.2454 9.60999 45.64 8.8948 44.7151C8.1796 43.7902 7.85807 42.6206 8 41.4601C7.99977 41.405 8.02019 41.3519 8.05721 41.3112C8.09424 41.2704 8.14519 41.2451 8.2 41.2401L11.24 41.0601C11.38 41.0601 11.46 41.0601 11.5 41.3401C11.66 42.1601 12.06 42.6801 12.6 42.6801C12.6717 42.6829 12.7431 42.6708 12.8099 42.6447C12.8767 42.6185 12.9374 42.5789 12.9881 42.5282C13.0388 42.4774 13.0785 42.4168 13.1046 42.35C13.1308 42.2832 13.1428 42.2117 13.14 42.1401C13.14 41.5201 12.56 41.0001 10.66 39.6201C9.97576 39.1698 9.41209 38.559 9.01815 37.8408C8.62422 37.1227 8.412 36.3191 8.4 35.5001C8.39543 34.5092 8.73643 33.5477 9.3643 32.7811C9.99217 32.0145 10.8676 31.4908 11.84 31.3001V30.0001C11.84 29.8801 11.84 29.7801 12 29.7801H13.76C13.94 29.7801 13.94 29.9401 13.94 31.3401C14.958 31.5338 15.8743 32.0822 16.5261 32.8878C17.1779 33.6934 17.523 34.704 17.5 35.7401C17.5 35.809 17.4726 35.8751 17.4238 35.9239C17.3751 35.9727 17.309 36.0001 17.24 36.0001L14 36.1601C13.84 36.1601 13.4 35.2401 13.22 35.2401C13.1744 35.2397 13.1292 35.2491 13.0875 35.2676C13.0459 35.2861 13.0086 35.3134 12.9783 35.3475C12.948 35.3815 12.9254 35.4217 12.9118 35.4653C12.8983 35.5089 12.8943 35.5548 12.9 35.6001C12.9 36.1801 13.7 36.7801 15.3 38.0001C15.9763 38.4316 16.5372 39.0213 16.9345 39.7182C17.3317 40.4151 17.5533 41.1983 17.58 42.0001C17.6418 43.0505 17.3089 44.0861 16.6466 44.9038C15.9843 45.7215 15.0404 46.2623 14 46.4201ZM34 46.0001H24C23.4696 46.0001 22.9609 45.7893 22.5858 45.4143C22.2107 45.0392 22 44.5305 22 44.0001C22 43.4696 22.2107 42.9609 22.5858 42.5858C22.9609 42.2108 23.4696 42.0001 24 42.0001H34C34.5304 42.0001 35.0391 42.2108 35.4142 42.5858C35.7893 42.9609 36 43.4696 36 44.0001C36 44.5305 35.7893 45.0392 35.4142 45.4143C35.0391 45.7893 34.5304 46.0001 34 46.0001ZM34 38.0001H24C23.4696 38.0001 22.9609 37.7893 22.5858 37.4143C22.2107 37.0392 22 36.5305 22 36.0001C22 35.4696 22.2107 34.9609 22.5858 34.5858C22.9609 34.2108 23.4696 34.0001 24 34.0001H34C34.5304 34.0001 35.0391 34.2108 35.4142 34.5858C35.7893 34.9609 36 35.4696 36 36.0001C36 36.5305 35.7893 37.0392 35.4142 37.4143C35.0391 37.7893 34.5304 38.0001 34 38.0001ZM34 30.0001H18C17.4696 30.0001 16.9609 29.7893 16.5858 29.4143C16.2107 29.0392 16 28.5305 16 28.0001C16 27.4696 16.2107 26.9609 16.5858 26.5858C16.9609 26.2108 17.4696 26.0001 18 26.0001H34C34.5304 26.0001 35.0391 26.2108 35.4142 26.5858C35.7893 26.9609 36 27.4696 36 28.0001C36 28.5305 35.7893 29.0392 35.4142 29.4143C35.0391 29.7893 34.5304 30.0001 34 30.0001Z" fill="#1A297A"/>
</svg>
