<svg width="61" height="62" viewBox="0 0 61 62" fill="none" xmlns="http://www.w3.org/2000/svg">
<path d="M33.5829 0.280029H6.19088C2.73488 0.280029 0.046875 3.09603 0.046875 6.55203V49.304C0.046875 52.76 2.86287 55.576 6.31887 55.576H33.7109C35.5029 55.576 37.1669 54.808 38.3189 53.528L25.6469 47.512C25.1349 47.256 24.6229 46.872 24.2389 46.488H3.75888V9.49603H36.0149V24.344C36.3989 23.96 36.7829 23.704 37.2949 23.576C37.6789 23.448 37.9349 23.448 38.3189 23.448C38.8309 23.448 39.3429 23.576 39.7269 23.704V6.55203C39.7269 3.09603 37.0389 0.280029 33.5829 0.280029ZM18.0949 49.432H21.6789C22.5749 49.432 23.3429 50.2 23.3429 51.096C23.3429 51.992 22.5749 52.76 21.6789 52.76H18.0949C17.1989 52.76 16.4309 51.992 16.4309 51.096C16.4309 50.2 17.1989 49.432 18.0949 49.432ZM24.7509 6.42403H15.1509C14.5109 6.42403 13.9989 5.91203 13.9989 5.27203C13.9989 4.63203 14.5109 4.12003 15.1509 4.12003H24.7509C25.3909 4.12003 25.9029 4.63203 25.9029 5.27203C25.9029 5.91203 25.3909 6.42403 24.7509 6.42403Z" fill="#1A297A"/>
<path d="M23.7262 27.2881C22.9582 26.9041 22.0622 26.5201 20.9102 26.2641H20.7822V22.0401C21.0382 22.0401 21.2942 22.1681 21.5502 22.1681C21.5502 21.6561 21.6782 21.1441 21.8062 20.6321C21.9342 20.3761 22.0622 20.1201 22.3182 19.8641C21.8062 19.7361 21.2942 19.6081 20.7822 19.6081V18.4561H19.3742V19.6081C17.9662 19.7361 16.8142 20.1201 15.7902 20.8881C14.8942 21.6561 14.3822 22.8081 14.3822 24.0881C14.3822 25.3681 14.7662 26.3921 15.5342 27.0321C16.3022 27.6721 17.5822 28.1841 19.2462 28.5681V32.9201C17.9662 32.6641 16.6862 32.0241 15.4062 31.0001L13.7422 32.9201C15.4062 34.3281 17.1982 35.0961 19.2462 35.3521V37.0161H20.6542V35.3521C22.1902 35.2241 23.3422 34.8401 24.3662 33.9441C25.1342 33.3041 25.5182 32.4081 25.6462 31.3841L23.7262 27.2881ZM19.3742 26.0081C18.4782 25.7521 17.9662 25.4961 17.7102 25.1121C17.4542 24.7281 17.1982 24.4721 17.1982 23.9601C17.1982 23.4481 17.4542 23.0641 17.7102 22.6801C18.0942 22.2961 18.6062 22.1681 19.2462 22.0401V26.0081H19.3742ZM22.5742 32.5361C22.1902 32.9201 21.5502 33.0481 20.9102 33.1761V29.2081C21.8062 29.4641 22.4462 29.7201 22.7022 30.1041C23.0862 30.3601 23.2142 30.8721 23.2142 31.3841C23.0862 31.6401 22.9582 32.1521 22.5742 32.5361Z" fill="#1A297A"/>
<path d="M53.4245 43.672L53.2965 46.232L40.1125 52.76L26.1605 46.104C24.3685 45.336 23.8565 43.032 25.0085 41.368C25.9045 40.216 27.5685 39.832 28.9765 40.472L32.6885 42.264L32.0485 40.856L23.0885 23.32C22.4485 22.04 23.0885 20.376 24.4965 19.992C25.6485 19.608 26.9285 20.248 27.4405 21.4L31.4085 29.336C30.7685 28.056 31.4085 26.392 32.8165 26.008C33.9685 25.624 35.2485 26.264 35.7605 27.416L36.2725 28.44C35.6325 27.16 36.2725 25.496 37.6805 25.112C38.8325 24.728 40.1125 25.368 40.6245 26.392L41.1365 27.288C40.4965 26.008 41.1365 24.344 42.5445 23.96C43.6965 23.576 44.9765 24.216 45.4885 25.368C53.2965 40.728 53.5525 40.856 53.4245 43.672Z" fill="#1A297A"/>
<path d="M39.7296 54.424C39.2176 54.68 38.9616 55.32 39.2176 55.832L41.9056 61.08C42.1616 61.592 42.8016 61.848 43.3136 61.592L59.4416 53.656C59.9536 53.4 60.2096 52.76 59.9536 52.248L57.2656 47C57.0096 46.488 56.3696 46.232 55.8576 46.488" fill="#1A297A"/>
</svg>
