<svg width="64" height="64" viewBox="0 0 64 64" fill="none" xmlns="http://www.w3.org/2000/svg">
<path fill-rule="evenodd" clip-rule="evenodd" d="M28.8103 12.8861H35.1891V16.0874C37.3016 16.5086 39.2653 17.3399 40.9953 18.4936L43.2603 16.2286L47.7716 20.7399L45.5078 23.0036C46.6628 24.7336 47.4928 26.6974 47.9141 28.8099H51.1153V35.1886H48.2828C46.8278 34.5699 45.2266 34.2261 43.5466 34.2261C43.4291 34.2261 43.3128 34.2286 43.1966 34.2311C44.5953 27.1811 39.2116 20.5849 32.0016 20.5849C25.6978 20.5849 20.5878 25.6949 20.5878 31.9986C20.5878 38.2286 25.5828 43.3011 31.7966 43.4099C31.1578 45.9874 31.3853 48.7024 32.4228 51.1124H28.8128V47.9124C26.7003 47.4911 24.7366 46.6599 23.0066 45.5061L20.7428 47.7699L16.2316 43.2586L18.4953 40.9949C17.3403 39.2649 16.5103 37.3011 16.0891 35.1886H12.8891V28.8099H16.0891C16.5103 26.6974 17.3416 24.7336 18.4953 23.0036L16.2316 20.7399L20.7428 16.2286L23.0066 18.4924C24.7366 17.3374 26.7003 16.5074 28.8128 16.0861V12.8861H28.8103ZM43.5453 36.2274C37.9641 36.2274 33.4403 40.7511 33.4403 46.3324C33.4403 51.9136 37.9641 56.4374 43.5453 56.4374C49.1266 56.4374 53.6503 51.9136 53.6503 46.3324C53.6503 40.7511 49.1266 36.2274 43.5453 36.2274ZM46.7766 42.0086L41.9966 46.8336L40.2916 45.1711C39.5753 44.4749 38.4303 44.4911 37.7341 45.2061C37.0378 45.9224 37.0541 47.0674 37.7691 47.7636L40.7578 50.6761C41.4666 51.3661 42.6016 51.3586 43.3003 50.6549L49.3403 44.5586C50.0441 43.8511 50.0416 42.7061 49.3328 42.0011C48.6266 41.2974 47.4816 41.3011 46.7766 42.0086ZM42.7228 58.4099C37.4028 60.5786 31.5491 61.0624 25.9878 59.8586L27.6766 62.3086C27.9891 62.7611 27.8753 63.3824 27.4228 63.6949C26.9703 64.0074 26.3491 63.8936 26.0366 63.4411L22.8403 58.8049C22.4903 58.2974 22.6828 57.5986 23.2353 57.3374L28.3216 54.9199C28.8203 54.6849 29.4141 54.8986 29.6491 55.3961C29.8841 55.8949 29.6703 56.4886 29.1728 56.7236L26.5978 57.9474C29.5716 58.5674 32.6566 58.6811 35.7141 58.2511C36.8241 58.0949 37.9303 57.8661 39.0266 57.5649C40.1803 58.0299 41.4241 58.3224 42.7228 58.4099ZM62.3091 36.3236L59.8591 38.0124C60.5641 34.7549 60.7016 31.3686 60.2278 28.0136C59.1028 20.0249 54.5503 12.7561 47.8216 8.28738C47.3616 7.98363 46.7428 8.10863 46.4391 8.56863C46.1353 9.02863 46.2603 9.64738 46.7203 9.95113C55.7003 15.9149 60.1541 26.8274 57.9478 37.4024L56.7241 34.8274C56.4891 34.3286 55.8941 34.1161 55.3966 34.3511C54.8978 34.5861 54.6853 35.1811 54.9203 35.6786L57.3378 40.7649C57.5991 41.3174 58.2991 41.5099 58.8053 41.1599L63.4416 37.9636C63.8941 37.6511 64.0078 37.0299 63.6953 36.5774C63.3828 36.1236 62.7616 36.0099 62.3091 36.3236ZM36.3241 1.69113L38.0128 4.14113C34.7553 3.43613 31.3691 3.29863 28.0141 3.77113C20.0253 4.89613 12.7603 9.44363 8.28781 16.1774C7.98406 16.6374 8.10906 17.2561 8.56906 17.5599C9.02906 17.8636 9.64781 17.7386 9.95156 17.2786C11.0653 15.6074 12.3716 14.0536 13.8616 12.6586C20.1716 6.74988 28.9541 4.28738 37.4028 6.04988L34.8278 7.27363C34.3291 7.50863 34.1166 8.10363 34.3516 8.60113C34.5866 9.09988 35.1816 9.31238 35.6791 9.07738L40.7653 6.65988C41.3178 6.39863 41.5103 5.69863 41.1603 5.19238L37.9641 0.558631C37.6516 0.106131 37.0303 -0.0076185 36.5778 0.304881C36.1241 0.617382 36.0103 1.23863 36.3241 1.69113ZM1.69156 27.6761L4.14156 25.9874C3.43656 29.2449 3.29906 32.6311 3.77156 35.9861C4.89656 43.9749 9.44906 51.2436 16.1778 55.7124C16.6378 56.0161 17.2566 55.8911 17.5603 55.4311C17.8641 54.9711 17.7391 54.3524 17.2791 54.0486C8.29906 48.0849 3.84531 37.1711 6.05156 26.5961L7.27531 29.1711C7.51031 29.6699 8.10531 29.8824 8.60281 29.6474C9.10156 29.4124 9.31406 28.8174 9.07906 28.3199L6.66281 23.2336C6.40156 22.6811 5.70156 22.4886 5.19531 22.8386L0.559059 26.0361C0.106559 26.3486 -0.00719126 26.9699 0.305309 27.4224C0.617809 27.8761 1.23906 27.9899 1.69156 27.6761ZM31.0003 25.8111V26.7561C30.4316 26.8974 29.9216 27.1924 29.5191 27.5936C27.5166 29.5961 28.9641 33.0011 31.7578 33.0011C32.2666 33.0011 32.6691 32.9474 33.0666 33.3449C33.8116 34.0899 33.2616 35.3374 32.2416 35.3374C31.5978 35.3374 31.0341 35.4349 30.6091 34.8486C30.2853 34.4024 29.6616 34.3024 29.2141 34.6261C28.7678 34.9499 28.6678 35.5736 28.9916 36.0211C29.4666 36.6774 30.1941 37.1386 30.9978 37.2874V38.1911C30.9978 38.7436 31.4453 39.1911 31.9978 39.1911C32.5503 39.1911 32.9978 38.7436 32.9978 38.1911V37.2461C33.5666 37.1049 34.0766 36.8099 34.4791 36.4086C36.4816 34.4061 35.0341 31.0024 32.2403 31.0024C31.7316 31.0024 31.3291 31.0561 30.9316 30.6586C30.1866 29.9136 30.7366 28.6661 31.7553 28.6661C32.3991 28.6661 32.9628 28.5686 33.3878 29.1549C33.7116 29.6011 34.3353 29.7011 34.7828 29.3774C35.2291 29.0536 35.3291 28.4299 35.0053 27.9824C34.5303 27.3261 33.8028 26.8649 32.9978 26.7161V25.8124C32.9978 25.2599 32.5503 24.8124 31.9978 24.8124C31.4478 24.8111 31.0003 25.2586 31.0003 25.8111ZM38.6566 25.3436C34.9803 21.6674 29.0203 21.6674 25.3441 25.3436C21.6678 29.0199 21.6678 34.9799 25.3441 38.6561C27.1728 40.4849 29.7266 41.5411 32.4878 41.4011C34.0528 37.8974 37.2341 35.2736 41.0841 34.4786C41.9841 31.1699 41.0128 27.6999 38.6566 25.3436Z" fill="#1A297A"/>
</svg>
