<svg width="58" height="64" viewBox="0 0 58 64" fill="none" xmlns="http://www.w3.org/2000/svg">
<path fill-rule="evenodd" clip-rule="evenodd" d="M8.42974 26.2629C5.80561 26.3669 3.41511 27.2819 1.51536 28.8217C1.30749 28.9902 1.02986 29.0099 0.800363 28.8722C0.570863 28.7346 0.457363 28.4807 0.507988 28.218C2.84274 16.096 12.9799 6.71825 25.4675 5.5315C23.287 8.061 21.5371 11.2971 20.2496 15.1959C18.8791 19.3474 18.0005 24.3562 17.6247 30.1141C15.3545 27.5474 12.0494 26.1185 8.42974 26.2629ZM45.3231 39.6337C38.5946 39.6337 33.14 45.0884 33.14 51.8169C33.14 58.5454 38.5946 64 45.3231 64C52.0516 64 57.5062 58.5454 57.5062 51.8169C57.5062 45.0884 52.0517 39.6337 45.3231 39.6337ZM49.7371 47.8451C49.9576 48.3706 49.7102 48.9754 49.1847 49.1959C48.6592 49.4164 48.0544 49.169 47.834 48.6435C47.488 47.8195 46.831 47.3437 46.1094 47.1609C45.6711 47.0496 45.1762 47.038 44.7311 47.1276C43.7929 47.3166 42.92 47.9514 42.971 49.0024C43.0306 50.2315 44.5087 50.5959 45.4994 50.7585C46.4181 50.9092 47.4206 51.1607 48.2579 51.6662C50.432 52.9789 50.863 55.9842 48.7594 57.5802C48.076 58.0989 47.2091 58.4136 46.3556 58.549V59.2589C46.3556 59.829 45.8935 60.2912 45.3234 60.2912C44.7532 60.2912 44.2911 59.829 44.2911 59.259V58.5292C43.5916 58.4012 42.9241 58.1452 42.3479 57.7615C41.488 57.1889 40.8292 56.3439 40.5506 55.2262C40.4147 54.674 40.7524 54.1161 41.3046 53.9802C41.8569 53.8444 42.4147 54.182 42.5506 54.7342C42.6936 55.308 43.0364 55.7449 43.485 56.0436C44.1935 56.5155 45.0564 56.6327 45.8831 56.5327C46.4869 56.4595 47.0896 56.2679 47.5175 55.9431C47.854 55.6877 48.0781 55.3312 48.067 54.8641C48.0529 54.2399 47.7191 53.7497 47.1934 53.4322C46.6242 53.0886 45.8729 52.9062 45.1687 52.7906C44.2812 52.6449 43.3184 52.38 42.533 51.8672C41.6279 51.2764 40.9777 50.4024 40.9146 49.0991C40.8135 47.0176 42.3545 45.5237 44.2911 45.119V44.375C44.2911 43.8049 44.7532 43.3427 45.3234 43.3427C45.8934 43.3427 46.3556 43.805 46.3556 44.375V45.1037C46.4407 45.1205 46.5254 45.1395 46.6095 45.1609C47.9194 45.493 49.1111 46.3542 49.7371 47.8451ZM26.9972 50.2872C26.7922 50.2872 26.6251 50.4544 26.6251 50.6594V57.0396C26.6251 59.1637 24.8966 60.8909 22.7727 60.8909H22.5437C20.4195 60.8909 18.6914 59.1641 18.6914 57.0396V54.2389C18.6914 53.3799 17.9951 52.6842 17.1361 52.6842C16.2777 52.6842 15.5822 53.3806 15.5822 54.2389V57.0396C15.5822 60.8782 18.7054 64 22.5437 64H22.7727C26.6112 64 29.7342 60.8782 29.7342 57.0396V50.6594C29.7342 50.4544 29.5671 50.2872 29.3621 50.2872H29.2381V28.4377C28.8789 28.3982 28.5152 28.3782 28.1491 28.3782C27.8036 28.3782 27.4606 28.3961 27.1212 28.4312V50.2872H26.9972ZM27.0907 3.2855C27.7957 3.25287 28.5025 3.2525 29.2076 3.28625V1.0585C29.2076 0.474997 28.7339 0.00012207 28.1491 0.00012207C27.5644 0.00012207 27.0907 0.475122 27.0907 1.0585V3.2855ZM47.8686 26.2641C44.2146 26.1174 40.8884 27.5725 38.6167 30.1816C38.2435 24.3947 37.3641 19.3634 35.9869 15.1959C34.6995 11.2944 32.9464 8.05587 30.7647 5.52625C43.2825 6.68412 53.451 16.0751 55.7902 28.2181C55.8409 28.4809 55.7274 28.7346 55.4979 28.8724C55.2684 29.0101 54.9909 28.9905 54.7829 28.8219C52.8831 27.2819 50.4926 26.3671 47.8686 26.2641ZM28.1492 26.2482C31.3651 26.2482 34.3182 27.5102 36.4644 29.6867C35.66 18.4599 32.8579 10.4409 28.1186 5.79475C23.3694 10.4502 20.5674 18.493 19.7679 29.7555C21.919 27.5369 24.8996 26.2482 28.1492 26.2482Z" fill="#1A297A"/>
</svg>
