<svg width="62" height="62" viewBox="0 0 62 62" fill="none" xmlns="http://www.w3.org/2000/svg">
<path d="M36.998 52.3333H40.3313V47H35.8113C35.5959 47.8842 35.2968 48.7459 34.918 49.5733L36.998 52.3333Z" fill="#1A297A"/>
<path d="M35.8113 39H40.3313V33.6666H36.998L34.918 36.4266C35.2968 37.2541 35.5959 38.1158 35.8113 39Z" fill="#1A297A"/>
<path d="M21.6667 39H19V41.6667H21.6667C22.0203 41.6667 22.3594 41.5262 22.6095 41.2761C22.8595 41.0261 23 40.687 23 40.3333C23 39.9797 22.8595 39.6406 22.6095 39.3905C22.3594 39.1405 22.0203 39 21.6667 39Z" fill="#1A297A"/>
<path d="M23 44.3333H19V47H23C23.3536 47 23.6928 46.8595 23.9428 46.6095C24.1929 46.3594 24.3333 46.0203 24.3333 45.6666C24.3333 45.313 24.1929 44.9739 23.9428 44.7238C23.6928 44.4738 23.3536 44.3333 23 44.3333Z" fill="#1A297A"/>
<path d="M9.66536 16.3333C9.66536 13.5043 10.7892 10.7912 12.7896 8.79084C14.7899 6.79045 17.5031 5.66665 20.332 5.66665C23.161 5.66665 25.8741 6.79045 27.8745 8.79084C29.8749 10.7912 30.9987 13.5043 30.9987 16.3333V21.6666H36.332V16.3333C36.332 12.0898 34.6463 8.02019 31.6457 5.0196C28.6452 2.01902 24.5755 0.333313 20.332 0.333313C16.0886 0.333313 12.0189 2.01902 9.01832 5.0196C6.01774 8.02019 4.33203 12.0898 4.33203 16.3333V21.6666H9.66536V16.3333Z" fill="#1A297A"/>
<path d="M53.9054 55H36.332C35.4654 55 35.3054 54.5066 33.492 52.0933C31.8787 49.9466 31.9987 50.0666 31.7187 49.8933C32.7807 48.2115 33.4463 46.3102 33.6654 44.3333H49.972C50.2866 45.2229 50.9055 45.9727 51.7193 46.4502C52.5332 46.9276 53.4897 47.1019 54.4197 46.9424C55.3497 46.7828 56.1933 46.2996 56.8015 45.5782C57.4097 44.8568 57.7433 43.9436 57.7433 43C57.7433 42.0564 57.4097 41.1432 56.8015 40.4218C56.1933 39.7003 55.3497 39.2171 54.4197 39.0576C53.4897 38.898 52.5332 39.0724 51.7193 39.5498C50.9055 40.0272 50.2866 40.777 49.972 41.6666H33.6654C33.3639 39.7052 32.704 37.8159 31.7187 36.0933C32.1187 35.7733 31.7187 36.3066 33.492 33.9066C35.2654 31.5066 35.4787 31 36.332 31H53.9054C54.2199 31.8896 54.8388 32.6394 55.6527 33.1168C56.4666 33.5943 57.423 33.7686 58.353 33.609C59.283 33.4495 60.1267 32.9663 60.7348 32.2449C61.343 31.5234 61.6766 30.6102 61.6766 29.6666C61.6766 28.7231 61.343 27.8099 60.7348 27.0884C60.1267 26.367 59.283 25.8838 58.353 25.7243C57.423 25.5647 56.4666 25.739 55.6527 26.2165C54.8388 26.6939 54.2199 27.4437 53.9054 28.3333H40.332V27C40.332 26.2927 40.0511 25.6145 39.551 25.1144C39.0509 24.6143 38.3726 24.3333 37.6654 24.3333H2.9987C2.29145 24.3333 1.61318 24.6143 1.11308 25.1144C0.612983 25.6145 0.332031 26.2927 0.332031 27V59C0.332031 59.7072 0.612983 60.3855 1.11308 60.8856C1.61318 61.3857 2.29145 61.6666 2.9987 61.6666H37.6654C38.3726 61.6666 39.0509 61.3857 39.551 60.8856C40.0511 60.3855 40.332 59.7072 40.332 59V57.6666H53.9054C54.2199 58.5563 54.8388 59.3061 55.6527 59.7835C56.4666 60.2609 57.423 60.4353 58.353 60.2757C59.283 60.1161 60.1267 59.6329 60.7348 58.9115C61.343 58.1901 61.6766 57.2769 61.6766 56.3333C61.6766 55.3897 61.343 54.4765 60.7348 53.7551C60.1267 53.0337 59.283 52.5505 58.353 52.3909C57.423 52.2314 56.4666 52.4057 55.6527 52.8831C54.8388 53.3606 54.2199 54.1104 53.9054 55ZM53.6654 41.6666C54.019 41.6666 54.3581 41.8071 54.6082 42.0572C54.8582 42.3072 54.9987 42.6464 54.9987 43C54.9987 43.3536 54.8582 43.6927 54.6082 43.9428C54.3581 44.1928 54.019 44.3333 53.6654 44.3333C53.3117 44.3333 52.9726 44.1928 52.7226 43.9428C52.4725 43.6927 52.332 43.3536 52.332 43C52.332 42.6464 52.4725 42.3072 52.7226 42.0572C52.9726 41.8071 53.3117 41.6666 53.6654 41.6666ZM57.6654 28.3333C58.019 28.3333 58.3581 28.4738 58.6082 28.7238C58.8582 28.9739 58.9987 29.313 58.9987 29.6666C58.9987 30.0203 58.8582 30.3594 58.6082 30.6095C58.3581 30.8595 58.019 31 57.6654 31C57.3117 31 56.9726 30.8595 56.7226 30.6095C56.4725 30.3594 56.332 30.0203 56.332 29.6666C56.332 29.313 56.4725 28.9739 56.7226 28.7238C56.9726 28.4738 57.3117 28.3333 57.6654 28.3333ZM4.33203 43C4.34263 39.8312 5.2939 36.737 7.06524 34.1095C8.83657 31.4821 11.3482 29.4398 14.2817 28.2415C17.2152 27.0433 20.4384 26.7431 23.5427 27.379C26.647 28.0148 29.4926 29.5582 31.7187 31.8133L30.1054 33.96C28.2863 31.9879 25.9147 30.6104 23.3003 30.0076C20.686 29.4047 17.9506 29.6046 15.4517 30.5811C12.9528 31.5576 10.8066 33.2653 9.29358 35.4809C7.78059 37.6965 6.97121 40.317 6.97121 43C6.97121 45.6829 7.78059 48.3034 9.29358 50.5191C10.8066 52.7347 12.9528 54.4423 15.4517 55.4188C17.9506 56.3953 20.686 56.5952 23.3003 55.9924C25.9147 55.3896 28.2863 54.0121 30.1054 52.04L31.7187 54.1866C29.4926 56.4418 26.647 57.9851 23.5427 58.621C20.4384 59.2569 17.2152 58.9567 14.2817 57.7584C11.3482 56.5602 8.83657 54.5179 7.06524 51.8904C5.2939 49.263 4.34263 46.1687 4.33203 43ZM18.9987 49.6666V51C18.9987 51.3536 18.8582 51.6927 18.6082 51.9428C18.3581 52.1928 18.019 52.3333 17.6654 52.3333C17.3117 52.3333 16.9726 52.1928 16.7226 51.9428C16.4725 51.6927 16.332 51.3536 16.332 51V49.6666H14.9987C14.6451 49.6666 14.3059 49.5262 14.0559 49.2761C13.8058 49.0261 13.6654 48.6869 13.6654 48.3333C13.6654 47.9797 13.8058 47.6406 14.0559 47.3905C14.3059 47.1405 14.6451 47 14.9987 47H16.332V39H14.9987C14.6451 39 14.3059 38.8595 14.0559 38.6095C13.8058 38.3594 13.6654 38.0203 13.6654 37.6666C13.6654 37.313 13.8058 36.9739 14.0559 36.7238C14.3059 36.4738 14.6451 36.3333 14.9987 36.3333H16.332V35C16.332 34.6464 16.4725 34.3072 16.7226 34.0572C16.9726 33.8071 17.3117 33.6666 17.6654 33.6666C18.019 33.6666 18.3581 33.8071 18.6082 34.0572C18.8582 34.3072 18.9987 34.6464 18.9987 35V36.3333H20.332V35C20.332 34.6464 20.4725 34.3072 20.7226 34.0572C20.9726 33.8071 21.3117 33.6666 21.6654 33.6666C22.019 33.6666 22.3581 33.8071 22.6082 34.0572C22.8582 34.3072 22.9987 34.6464 22.9987 35V36.5733C23.5465 36.7688 24.0451 37.0814 24.4597 37.4893C24.8743 37.8972 25.195 38.3906 25.3993 38.9352C25.6037 39.4797 25.6868 40.0623 25.643 40.6423C25.5991 41.2223 25.4293 41.7857 25.1454 42.2933C25.8751 42.7583 26.4344 43.4474 26.7393 44.2573C27.0442 45.0671 27.0782 45.954 26.8363 46.7848C26.5945 47.6156 26.0897 48.3456 25.3977 48.8652C24.7058 49.3848 23.864 49.666 22.9987 49.6666V51C22.9987 51.3536 22.8582 51.6927 22.6082 51.9428C22.3581 52.1928 22.019 52.3333 21.6654 52.3333C21.3117 52.3333 20.9726 52.1928 20.7226 51.9428C20.4725 51.6927 20.332 51.3536 20.332 51V49.6666H18.9987ZM57.6654 57.6666C57.3117 57.6666 56.9726 57.5262 56.7226 57.2761C56.4725 57.0261 56.332 56.6869 56.332 56.3333C56.332 55.9797 56.4725 55.6406 56.7226 55.3905C56.9726 55.1405 57.3117 55 57.6654 55C58.019 55 58.3581 55.1405 58.6082 55.3905C58.8582 55.6406 58.9987 55.9797 58.9987 56.3333C58.9987 56.6869 58.8582 57.0261 58.6082 57.2761C58.3581 57.5262 58.019 57.6666 57.6654 57.6666Z" fill="#1A297A"/>
</svg>
