<svg width="46" height="54" viewBox="0 0 46 54" fill="none" xmlns="http://www.w3.org/2000/svg">
<path fill-rule="evenodd" clip-rule="evenodd" d="M21.5908 25.6435C22.8363 26.1693 23.9783 26.8922 24.9776 27.7733C25.05 27.8371 25.1638 27.7858 25.1638 27.6892V21.3303C25.1638 21.0122 25.4066 20.733 25.7218 20.733H31.8933C32.2084 20.733 32.4513 21.0122 32.4513 21.3303V44.6406C32.4513 44.9585 32.2084 45.238 31.8933 45.238H26.2146C26.181 45.238 26.1524 45.2513 26.1302 45.2766C21.4002 50.6984 13.0628 50.9954 7.96459 45.8972C3.10827 41.0409 3.10827 33.1676 7.96459 28.3112C9.62795 26.6479 11.7603 25.4536 14.1462 24.9438C14.1985 24.9327 14.2349 24.8878 14.2349 24.8343V14.1511C14.2349 13.8263 14.4728 13.5301 14.7929 13.5301H20.9644C21.2847 13.5301 21.5224 13.8263 21.5224 14.1511V25.5404C21.5224 25.5863 21.5485 25.6254 21.5908 25.6435ZM36.7751 29.6596V44.1591C36.7751 44.4893 37.0087 44.8002 37.333 44.8002H43.5047C43.829 44.8002 44.0626 44.4893 44.0626 44.1591V29.6596C44.0626 29.3292 43.829 29.0184 43.5047 29.0184H37.333C37.0087 29.0184 36.7751 29.3292 36.7751 29.6596ZM40.4187 16.6871C37.3753 16.6871 34.885 19.1772 34.885 22.2208C34.885 25.2643 37.3753 27.7544 40.4189 27.7544C43.4624 27.7544 45.9526 25.2642 45.9526 22.2208C45.9526 19.1772 43.4623 16.6871 40.4187 16.6871ZM39.5806 18.9772C39.6155 18.5451 39.9775 18.2051 40.4187 18.2051C40.8486 18.2051 41.2033 18.5278 41.2534 18.9441C41.2594 18.9939 41.2958 19.0323 41.3451 19.041C41.8008 19.1217 42.2303 19.2605 42.6225 19.4515C43.0397 19.6546 43.2132 20.1576 43.0101 20.5748C42.807 20.9921 42.3039 21.1655 41.8868 20.9624C41.316 20.6845 40.3897 20.489 39.7407 20.766L39.7411 20.7668C39.6239 20.8166 39.3775 20.9374 39.4685 21.0501C39.656 21.2824 40.1259 21.383 40.4313 21.383C42.5883 21.3831 43.7851 23.1824 42.6924 24.5457C42.482 24.8083 42.1602 25.0531 41.7804 25.2143L41.7805 25.2147C41.468 25.35 41.2673 25.3402 41.256 25.4671C41.167 26.4697 39.7031 26.486 39.5838 25.4968C39.5778 25.4472 39.5418 25.409 39.4927 25.3999C39.0541 25.3196 38.6202 25.1829 38.2185 24.996C37.7977 24.8002 37.6154 24.3001 37.8113 23.8792C38.0071 23.4584 38.5072 23.2761 38.928 23.472C39.523 23.7488 40.468 23.963 41.1171 23.6776C41.2372 23.6249 41.4175 23.5027 41.4164 23.4339C41.4155 23.3757 41.2368 23.2449 41.1202 23.1962C40.4561 22.9192 40.0607 23.2083 39.084 22.7879L39.0845 22.7868C37.2977 21.9846 37.3434 19.9637 39.0906 19.2226L39.0909 19.2232C39.3832 19.0955 39.5706 19.1005 39.5806 18.9772ZM28.8075 8.4491C25.7639 8.4491 23.2738 10.9392 23.2738 13.9828C23.2738 17.0264 25.7639 19.5165 28.8076 19.5165C31.8511 19.5165 34.3413 17.0264 34.3413 13.9828C34.3413 10.9392 31.8511 8.4491 28.8075 8.4491ZM26.5569 11.6499C26.3074 11.9591 26.1726 12.3188 26.1521 12.7284C26.1128 13.54 26.7217 14.2119 27.4735 14.5493L27.4729 14.5505C28.4489 14.9706 28.8473 14.6821 29.5092 14.9587C29.6258 15.0074 29.8043 15.138 29.8054 15.1964C29.8066 15.2691 29.619 15.3873 29.496 15.443C28.8639 15.7294 27.8916 15.5018 27.3169 15.2344C26.8961 15.0385 26.3961 15.2208 26.2001 15.6417C26.0043 16.0625 26.1866 16.5626 26.6074 16.7585C27.0091 16.9454 27.443 17.0821 27.8815 17.1623C27.9305 17.1713 27.9666 17.2096 27.9727 17.2592C28.0918 18.2483 29.5555 18.2323 29.6449 17.2295C29.6491 17.1818 29.6812 17.1436 29.7274 17.1312C30.2537 16.9898 30.7515 16.7193 31.0811 16.308C32.174 14.9445 30.9768 13.1453 28.82 13.1453C28.5147 13.1453 28.0449 13.0448 27.8572 12.8122C27.7665 12.6997 28.0129 12.5788 28.13 12.5291L28.1296 12.5283C28.7787 12.2513 29.705 12.4469 30.2756 12.7247C30.6928 12.9278 31.1958 12.7544 31.399 12.3371C31.6021 11.92 31.4287 11.4169 31.0114 11.2138C30.6192 11.0228 30.1895 10.884 29.7338 10.8033C29.6845 10.7946 29.6482 10.756 29.6422 10.7064C29.5227 9.71694 28.0573 9.73256 27.9698 10.7399C27.9592 10.8624 27.7714 10.8579 27.4797 10.9861L27.4795 10.9854C27.0875 11.1516 26.78 11.3733 26.5569 11.6499ZM17.8787 11.3012C14.8226 11.3012 12.3221 8.80072 12.3221 5.74459C12.3221 2.68846 14.8226 0.18811 17.8786 0.18811C20.9347 0.18811 23.4352 2.68859 23.4352 5.74459C23.4353 8.80085 20.9348 11.3012 17.8787 11.3012ZM20.0902 2.96725C19.6955 2.77512 19.2638 2.63585 18.8054 2.55496C18.7559 2.54625 18.7195 2.5076 18.7137 2.45768C18.597 1.46747 17.1279 1.47477 17.0411 2.49121C17.0306 2.61448 16.8406 2.60949 16.5442 2.73992L16.5434 2.738C14.8076 3.47464 14.7386 5.50165 16.5406 6.31061L16.5401 6.31176C17.5204 6.73339 17.9181 6.44321 18.5846 6.72161C18.7023 6.77077 18.8834 6.90286 18.8843 6.96341C18.8854 7.03457 18.7025 7.15809 18.5814 7.21134C17.9286 7.49819 16.979 7.28328 16.3806 7.00475C15.9597 6.80891 15.4598 6.99118 15.2638 7.41205C15.0678 7.83291 15.2502 8.33288 15.6711 8.52885C16.0757 8.71714 16.511 8.85397 16.9525 8.93461C17.0018 8.94357 17.0379 8.98209 17.0436 9.03176C17.1601 10.0227 18.6276 10.0099 18.7161 9.00194C18.7272 8.87457 18.9293 8.88469 19.2447 8.74824L19.2446 8.74773C19.6255 8.58606 19.948 8.34069 20.159 8.07739C21.2547 6.71009 20.0533 4.90721 17.8913 4.90721C17.5835 4.90721 17.111 4.80597 16.9218 4.57147C16.8277 4.45486 17.0769 4.33416 17.2003 4.28181L17.1994 4.27976C17.8489 4.00225 18.7839 4.2004 19.3544 4.47816C19.7717 4.68129 20.2746 4.50785 20.4777 4.09057C20.6809 3.67329 20.5074 3.17038 20.0902 2.96725ZM27.6013 47.5068C21.7822 53.5712 12.1004 53.6957 6.13317 47.7285C0.0321772 41.6275 0.333746 31.7103 6.66219 25.9745C6.74335 25.9009 6.87224 25.9773 6.84664 26.0839C6.74015 26.5264 7.00651 26.9749 7.44875 27.0913C7.89675 27.2092 8.35563 26.9415 8.47352 26.4935L9.16997 23.8816C9.32229 23.3222 8.95275 22.7847 8.29035 22.8011L5.61605 22.8632C5.15346 22.8723 4.78584 23.2546 4.79493 23.7172C4.80287 24.126 5.10264 24.4608 5.49151 24.5267C5.58392 24.5424 5.6172 24.6572 5.54783 24.7201C-1.50075 31.1018 -1.84494 42.1283 4.94418 48.9175C11.5805 55.5537 22.3321 55.4121 28.81 48.6695C29.1311 48.3358 29.1208 47.8049 28.7871 47.4837C28.4533 47.1627 27.9225 47.1731 27.6013 47.5068ZM15.9167 30.9756V37.1041C15.9167 37.415 16.0548 37.6062 16.2609 37.783L19.6875 40.7201C20.0393 41.0211 20.5689 40.98 20.8699 40.628C21.171 40.2762 21.1299 39.7466 20.7779 39.4456L17.6376 36.7539C17.6118 36.7319 17.5984 36.7027 17.5984 36.6688V30.9756C17.5984 30.5112 17.2219 30.1347 16.7576 30.1347C16.2932 30.1346 15.9167 30.5112 15.9167 30.9756ZM15.9167 47.7033V46.2076C15.9167 45.7432 16.2932 45.3667 16.7576 45.3667C17.2219 45.3667 17.5984 45.7432 17.5984 46.2076V47.7033C17.5984 47.7694 17.6545 47.8208 17.7204 47.8149C22.8913 47.3561 27.0095 43.2378 27.4683 38.0669C27.4742 38.001 27.4229 37.9449 27.3567 37.9449H25.861C25.3967 37.9449 25.0202 37.5685 25.0202 37.1041C25.0202 36.6397 25.3967 36.2632 25.861 36.2632H27.3567C27.4229 36.2632 27.4742 36.2072 27.4683 36.1413C27.0095 30.9703 22.8913 26.8522 17.7204 26.3933C17.6545 26.3874 17.5984 26.4387 17.5984 26.5049V28.0006C17.5984 28.465 17.2219 28.8414 16.7576 28.8414C16.2932 28.8414 15.9167 28.465 15.9167 28.0006V26.5049C15.9167 26.4387 15.8607 26.3874 15.7947 26.3933C10.6238 26.852 6.50565 30.9703 6.04677 36.1413C6.04088 36.2072 6.09221 36.2632 6.15839 36.2632H7.65407C8.11845 36.2632 8.4949 36.6397 8.4949 37.1041C8.4949 37.5685 8.11845 37.9449 7.65407 37.9449H6.15839C6.09221 37.9449 6.04088 38.001 6.04677 38.0669C6.50552 43.2378 10.6238 47.356 15.7947 47.8149C15.8607 47.8208 15.9167 47.7694 15.9167 47.7033Z" fill="#1A297A"/>
</svg>
