<svg width="56" height="56" viewBox="0 0 56 56" fill="none" xmlns="http://www.w3.org/2000/svg">
<path d="M28.9999 35V31C29.5303 31 30.039 31.2107 30.4141 31.5858C30.7892 31.9609 30.9999 32.4696 30.9999 33C30.9999 33.5304 30.7892 34.0392 30.4141 34.4142C30.039 34.7893 29.5303 35 28.9999 35ZM15.9135 54.8394C17.4416 55.6007 19.1252 55.9979 20.8324 56H40.9999V43.5945C39.0481 42.5869 36.879 42.0732 34.6826 42.0984C32.4862 42.1236 30.3294 42.687 28.4013 43.7391L28.1425 43.8793C27.9963 43.9585 27.8325 44 27.6662 44H19.9999C19.4695 44 18.9608 44.2107 18.5857 44.5858C18.2106 44.9609 17.9999 45.4696 17.9999 46C17.9999 46.5304 18.2106 47.0392 18.5857 47.4142C18.9608 47.7893 19.4695 48 19.9999 48H28.9999V50H17.9999C17.8561 50 17.7141 49.969 17.5834 49.9091L6.21303 44.7008C5.8961 44.5564 5.55029 44.4867 5.2022 44.497C4.85411 44.5073 4.51302 44.5973 4.20515 44.76C4.14359 44.7918 4.08376 44.8269 4.0259 44.865C3.7111 45.0716 3.45254 45.3531 3.27345 45.6843C3.09437 46.0155 3.00037 46.386 2.9999 46.7625V46.98C2.99853 47.4017 3.11526 47.8153 3.33687 48.174C3.55848 48.5327 3.8761 48.8222 4.25378 49.0096L15.9135 54.8394ZM0.276275 24.0813C-0.63697 30.5314 0.729757 37.098 4.14065 42.6481C5.10654 42.3851 6.13399 42.4679 7.04528 42.8823L10.4203 44.428C10.4648 44.341 10.5126 44.2558 10.5637 44.1723C8.30802 41.7346 6.58292 38.8552 5.49753 35.7164C4.48076 32.7415 4.06224 29.5948 4.26604 26.4576C4.46984 23.3203 5.29193 20.2543 6.68503 17.4359C6.75039 17.304 6.84407 17.1882 6.95936 17.0967C7.07466 17.0052 7.20873 16.9403 7.35201 16.9066C7.49529 16.8729 7.64424 16.8712 7.78824 16.9017C7.93223 16.9322 8.06772 16.9941 8.18503 17.083L8.52502 17.3406L8.55503 10.6751L2.14828 12.5126L3.15828 13.2769C3.34955 13.4216 3.48242 13.6303 3.53265 13.8649C3.58288 14.0995 3.54713 14.3443 3.4319 14.5546C1.81265 17.5133 0.74347 20.741 0.276275 24.0813ZM26.9999 29V25C26.4695 25 25.9608 25.2107 25.5857 25.5858C25.2106 25.9609 24.9999 26.4696 24.9999 27C24.9999 27.5304 25.2106 28.0392 25.5857 28.4142C25.9608 28.7893 26.4695 29 26.9999 29ZM45.4208 44L45.4083 46.643C45.4076 46.7983 45.4431 46.9516 45.5119 47.0907C45.5807 47.2299 45.681 47.3511 45.8048 47.4448C45.9286 47.5385 46.0725 47.6021 46.2251 47.6305C46.3778 47.659 46.5349 47.6515 46.6842 47.6086L52.9999 45.7973V56H42.9999V44H45.4208ZM44.9999 52C44.9999 52.3956 45.1172 52.7823 45.337 53.1112C45.5567 53.4401 45.8691 53.6964 46.2345 53.8478C46.6 53.9991 47.0021 54.0388 47.3901 53.9616C47.778 53.8844 48.1344 53.6939 48.4141 53.4142C48.6938 53.1345 48.8843 52.7782 48.9615 52.3902C49.0386 52.0022 48.999 51.6001 48.8477 51.2346C48.6963 50.8692 48.4399 50.5568 48.111 50.3371C47.7821 50.1173 47.3955 50 46.9999 50C46.4697 50.0006 45.9613 50.2116 45.5864 50.5865C45.2114 50.9614 45.0005 51.4698 44.9999 52ZM31.9163 0.277016C25.2712 -0.670296 18.5073 0.809145 12.8645 4.44414L15.126 8.00002C19.9218 4.90217 25.6754 3.64144 31.3272 4.45002C44.3124 6.28427 53.3839 18.3414 51.5492 31.3268C51.1953 33.8475 50.4387 36.295 49.3082 38.5756C49.2428 38.7074 49.1491 38.8231 49.0339 38.9146C48.9187 39.006 48.7847 39.0709 48.6415 39.1046C48.4983 39.1383 48.3495 39.14 48.2056 39.1096C48.0616 39.0792 47.9262 39.0174 47.8089 38.9286L47.4448 38.6536L47.4149 45.3193L53.8223 43.4818L52.8331 42.7329C52.6419 42.5881 52.509 42.3794 52.4589 42.1448C52.4087 41.9102 52.4445 41.6654 52.5598 41.455C54.7347 37.4824 55.9137 33.0415 55.9957 28.5132C56.0776 23.9849 55.0601 19.5043 53.0304 15.4556C51.0007 11.4068 48.0193 7.91073 44.3418 5.2671C40.6644 2.62347 36.4007 0.911169 31.9163 0.277016ZM25.181 15.8815C25.2385 15.7392 25.2624 15.5855 25.2508 15.4324C25.2393 15.2793 25.1927 15.1309 25.1147 14.9988L22.7523 11H33.2475L30.885 14.9988C30.8069 15.1309 30.7603 15.2793 30.7488 15.4324C30.7373 15.5855 30.7611 15.7392 30.8186 15.8815C30.876 16.0239 30.9654 16.1511 31.0799 16.2534C31.1944 16.3556 31.331 16.4301 31.4789 16.4711C34.2143 17.2369 36.6246 18.8752 38.3432 21.1368C40.0619 23.3984 40.9948 26.1595 40.9999 29V41.3836C38.8445 40.4436 36.5028 40.0088 34.1537 40.1125C31.8045 40.2162 29.5102 40.8556 27.446 41.9819L27.4124 42H19.9999C19.3855 42.0007 18.7794 42.1428 18.2287 42.4152C17.678 42.6876 17.1973 43.0831 16.8239 43.571C16.4505 44.059 16.1943 44.6263 16.0753 45.2291C15.9562 45.8319 15.9775 46.454 16.1374 47.0473L12.2428 45.2625C12.323 45.1219 12.4215 44.9926 12.5358 44.8779L14.707 42.7066C14.8944 42.5192 14.9998 42.2651 14.9999 42V29C15.005 26.1595 15.9379 23.3984 17.6565 21.1368C19.3751 18.8752 21.7854 17.2369 24.5208 16.4711C24.6687 16.4301 24.8052 16.3556 24.9197 16.2534C25.0342 16.1511 25.1236 16.0239 25.181 15.8815ZM21.3264 22.9681L19.8435 21.6264C18.0126 23.6457 16.9989 26.2742 16.9999 29V30H18.9999V29C18.9992 26.7702 19.8285 24.6199 21.3264 22.9681ZM22.6014 21.8039C23.0642 21.4557 23.5594 21.1528 24.0803 20.8994L23.2053 19.1006C22.5689 19.4102 21.9638 19.7803 21.3983 20.2058L22.6014 21.8039ZM22.9999 27C23.0011 28.0605 23.4229 29.0772 24.1728 29.8271C24.9227 30.577 25.9394 30.9988 26.9999 31V35C26.4697 34.9994 25.9613 34.7885 25.5864 34.4135C25.2114 34.0386 25.0005 33.5303 24.9999 33H22.9999C23.0011 34.0605 23.4229 35.0772 24.1728 35.8271C24.9227 36.577 25.9394 36.9988 26.9999 37V39H28.9999V37C30.0608 37 31.0782 36.5786 31.8283 35.8284C32.5785 35.0783 32.9999 34.0609 32.9999 33C32.9999 31.9391 32.5785 30.9217 31.8283 30.1716C31.0782 29.4214 30.0608 29 28.9999 29V25C29.5301 25.0006 30.0385 25.2116 30.4134 25.5865C30.7884 25.9614 30.9993 26.4698 30.9999 27H32.9999C32.9987 25.9395 32.5769 24.9228 31.827 24.1729C31.0771 23.423 30.0604 23.0012 28.9999 23V21H26.9999V23C25.9394 23.0012 24.9227 23.423 24.1728 24.1729C23.4229 24.9228 23.0011 25.9395 22.9999 27Z" fill="#1A297A"/>
</svg>
