<svg width="61" height="56" viewBox="0 0 61 56" fill="none" xmlns="http://www.w3.org/2000/svg">
<g clip-path="url(#clip0_678_12248)">
<path d="M24.5 44.9999H30.5V51.9999H24.5V44.9999Z" fill="#1A297A"/>
<path d="M36.5 33.9999H42.5V51.9999H36.5V33.9999Z" fill="#1A297A"/>
<path d="M48.5 22.9999H54.5V51.9999H48.5V22.9999Z" fill="#1A297A"/>
<path d="M0.5 53.9999H59.5V55.9999H0.5V53.9999Z" fill="#1A297A"/>
<path d="M51.5 -0.00012207C46.53 -0.00012207 42.5 4.02988 42.5 8.99988C42.5 13.9699 46.53 17.9999 51.5 17.9999C56.47 17.9999 60.5 13.9699 60.5 8.99988C60.5 4.02988 56.47 -0.00012207 51.5 -0.00012207ZM51 7.99988H52C53.65 7.99988 55 9.34988 55 10.9999C55 12.4799 53.92 13.7099 52.5 13.9499V14.9999H50.5V13.9499C49.08 13.7099 48 12.4799 48 10.9999H50C50 11.5499 50.45 11.9999 51 11.9999H52C52.55 11.9999 53 11.5499 53 10.9999C53 10.4499 52.55 9.99988 52 9.99988H51C49.35 9.99988 48 8.64988 48 6.99988C48 5.51988 49.08 4.28988 50.5 4.04988V2.99988H52.5V4.04988C53.92 4.28988 55 5.51988 55 6.99988H53C53 6.44988 52.55 5.99988 52 5.99988H51C50.45 5.99988 50 6.44988 50 6.99988C50 7.54988 50.45 7.99988 51 7.99988Z" fill="#1A297A"/>
<path d="M40.5898 26.0798L41.0398 18.3198L33.5898 20.5598L36.3298 22.7298C26.8298 34.2798 15.3198 43.1398 2.08984 49.0998L2.90984 50.9198C16.4398 44.8298 28.1998 35.7698 37.8998 23.9598L40.5898 26.0798Z" fill="#1A297A"/>
</g>
<defs>
<clipPath id="clip0_678_12248">
<rect width="60" height="56" fill="white" transform="translate(0.5 -0.00012207)"/>
</clipPath>
</defs>
</svg>
