<svg width="81" height="80" viewBox="0 0 81 80" fill="none" xmlns="http://www.w3.org/2000/svg">
<path fill-rule="evenodd" clip-rule="evenodd" d="M7.59656 15.548H8.8325V11.0792H7.73063C4.79141 11.0792 2.38672 13.4839 2.38672 16.4232V53.1871C2.38672 56.1263 4.79156 58.5311 7.73063 58.5311H26.22V67.0214H18.0858C15.5792 67.0214 13.5284 68.66 13.5284 70.6627V74.3039H43.5873C43.4722 74.1935 43.358 74.0819 43.2448 73.9688C39.3134 70.0374 37.0178 64.821 36.77 59.2678C36.6206 55.9186 37.228 52.5888 38.5378 49.5294H6.85547V16.2891C6.85547 15.8816 7.18891 15.548 7.59656 15.548ZM69.2981 55.8016C69.0372 54.7052 68.6027 53.6578 68.0117 52.6983L68.9069 50.683L66.5306 48.3069L64.5147 49.2022C63.5553 48.6114 62.5083 48.1769 61.4122 47.916L60.6203 45.8586H57.26L56.4681 47.916C55.372 48.1769 54.3252 48.6114 53.3658 49.2022L51.3498 48.3069L48.9738 50.683L49.8691 52.6988C49.2781 53.6582 48.8436 54.7053 48.5828 55.8016L46.5256 56.5935V59.9536L48.5825 60.7453C48.8433 61.8417 49.278 62.8891 49.8689 63.8486L48.9738 65.8639L51.3498 68.24L53.3659 67.3447C54.3253 67.9355 55.3722 68.37 56.4684 68.6308L57.2602 70.6881H60.6205L61.4122 68.6313C62.5086 68.3705 63.5558 67.9358 64.5155 67.3449L66.5308 68.24L68.9069 65.8639L68.0116 63.8478C68.6022 62.8885 69.0369 61.8416 69.2977 60.7453L71.355 59.9535V56.5932L69.2981 55.8016ZM58.9402 64.1336C55.7034 64.1336 53.08 61.5102 53.08 58.2735C53.08 55.0366 55.7034 52.4133 58.9402 52.4133C62.177 52.4133 64.8005 55.0367 64.8005 58.2735C64.8005 61.5102 62.177 64.1336 58.9402 64.1336ZM50.2919 43.4021C61.3212 36.9802 75.543 44.4985 76.1228 57.4983C76.2702 60.8027 75.4694 64.1416 73.7208 67.0728C73.6286 66.4542 73.0845 65.9903 72.4447 66.0128C71.757 66.0371 71.2192 66.6142 71.2434 67.3019L71.3623 70.6146C71.3325 71.4533 72.1319 72.0936 72.9525 71.8602L76.2252 70.9264C76.8884 70.7377 77.2733 70.0467 77.0845 69.3835C76.9191 68.8017 76.3673 68.4344 75.7867 68.48C77.8416 65.0941 78.7838 61.2224 78.613 57.391C77.9486 42.4953 61.6744 33.8885 49.0417 41.2439C48.4458 41.5891 48.2425 42.3521 48.5877 42.948C48.9328 43.5439 49.6959 43.7472 50.2919 43.4021ZM42.0938 48.0669C41.5133 48.1124 40.9616 47.745 40.7961 47.1633C40.6073 46.4999 40.9922 45.8091 41.6555 45.6203L44.9281 44.6866C45.7486 44.4532 46.548 45.0935 46.5183 45.9322L46.6372 49.2449C46.6614 49.9325 46.1236 50.5097 45.4359 50.5339C44.7961 50.5564 44.2519 50.0924 44.1598 49.4736C42.4112 52.405 41.6103 55.7442 41.7578 59.0488C42.338 72.0478 56.5588 79.5663 67.588 73.145C68.1839 72.7999 68.9469 73.0032 69.292 73.5991C69.6372 74.195 69.4339 74.958 68.838 75.3031C56.2055 82.6578 39.932 74.0511 39.2677 59.1561C39.0966 55.3249 40.0389 51.453 42.0938 48.0669ZM38.0867 2.09456C38.1753 2.13503 38.2569 2.19237 38.3311 2.26659L43.0152 6.95065C43.0894 7.02487 43.1467 7.10643 43.1872 7.19503H38.5037C38.2741 7.19503 38.0867 7.00768 38.0867 6.77784V2.09456ZM38.5039 9.69503C36.8944 9.69503 35.5869 8.38753 35.5869 6.778V2.02222H12.1667C11.7072 2.02222 11.3325 2.3969 11.3325 2.85644V42.5683C11.3325 43.0277 11.7072 43.4025 12.1667 43.4025H42.4253C42.8848 43.4025 43.2595 43.0277 43.2595 42.5683V9.69503H38.5039ZM22.413 4.78659C24.1512 4.78659 25.5603 6.19565 25.5603 7.93393C25.5603 9.67206 24.1512 11.0813 22.413 11.0813C20.6747 11.0813 19.2656 9.67206 19.2656 7.93393C19.2656 6.19565 20.6748 4.78659 22.413 4.78659ZM16.3555 17.4299C17.0047 14.6857 19.4703 12.6438 22.413 12.6438C25.3556 12.6438 27.8211 14.6858 28.4705 17.4299C28.5639 17.8246 28.2677 18.1988 27.8622 18.1988H16.9637C16.5581 18.1988 16.262 17.8244 16.3555 17.4299ZM38.3681 39.7392H16.2239C15.5336 39.7392 14.9739 39.1796 14.9739 38.4892C14.9739 37.7989 15.5336 37.2392 16.2239 37.2392H38.3681C39.0584 37.2392 39.6181 37.7989 39.6181 38.4892C39.6181 39.1796 39.0584 39.7392 38.3681 39.7392ZM38.3681 34.7561H16.2239C15.5336 34.7561 14.9739 34.1964 14.9739 33.5061C14.9739 32.8158 15.5336 32.2561 16.2239 32.2561H38.3681C39.0584 32.2561 39.6181 32.8158 39.6181 33.5061C39.6181 34.1964 39.0584 34.7561 38.3681 34.7561ZM38.3681 29.773H16.2239C15.5336 29.773 14.9739 29.2133 14.9739 28.523C14.9739 27.8327 15.5336 27.273 16.2239 27.273H38.3681C39.0584 27.273 39.6181 27.8327 39.6181 28.523C39.6181 29.2133 39.0584 29.773 38.3681 29.773ZM38.3681 24.7899H16.2239C15.5336 24.7899 14.9739 24.2302 14.9739 23.5399C14.9739 22.8496 15.5336 22.2899 16.2239 22.2899H38.3681C39.0584 22.2899 39.6181 22.8496 39.6181 23.5399C39.6181 24.2302 39.0584 24.7899 38.3681 24.7899ZM38.3681 18.2441H31.847C31.1567 18.2441 30.597 17.6844 30.597 16.9941C30.597 16.3038 31.1567 15.7441 31.847 15.7441H38.3681C39.0584 15.7441 39.6181 16.3038 39.6181 16.9941C39.6181 17.6846 39.0584 18.2441 38.3681 18.2441ZM38.3681 13.261H31.847C31.1567 13.261 30.597 12.7013 30.597 12.011C30.597 11.3207 31.1567 10.761 31.847 10.761H38.3681C39.0584 10.761 39.6181 11.3207 39.6181 12.011C39.6181 12.7014 39.0584 13.261 38.3681 13.261ZM71.9008 40.2516C70.5094 39.2496 69.0105 38.4155 67.432 37.7632V16.2891C67.432 15.8816 67.0986 15.548 66.6909 15.548H45.7597V11.0792H66.5569C69.4961 11.0792 71.9009 13.4841 71.9009 16.4232L71.9008 40.2516Z" fill="#DDDFEB"/>
</svg>
