<svg width="81" height="80" viewBox="0 0 81 80" fill="none" xmlns="http://www.w3.org/2000/svg">
<path fill-rule="evenodd" clip-rule="evenodd" d="M42.6797 22.2656C42.6797 11.2812 33.7422 2.34375 22.7578 2.34375C11.7734 2.34375 2.83594 11.2812 2.83594 22.2656C2.83594 33.25 11.7734 42.1875 22.7578 42.1875C33.7422 42.1875 42.6797 33.25 42.6797 22.2656ZM22.7578 37.5C31.1578 37.5 37.9922 30.6656 37.9922 22.2656C37.9922 13.8656 31.1578 7.03125 22.7578 7.03125C14.3578 7.03125 7.52344 13.8656 7.52344 22.2656C7.52344 30.6656 14.3578 37.5 22.7578 37.5ZM22.7578 9.375C29.8656 9.375 35.6484 15.1578 35.6484 22.2656C35.6484 29.3734 29.8656 35.1562 22.7578 35.1562C15.65 35.1562 9.86719 29.3734 9.86719 22.2656C9.86719 15.1578 15.65 9.375 22.7578 9.375ZM23.6375 23.4375H21.8797C19.7781 23.4375 18.0703 21.7297 18.0703 19.6281C18.0703 17.6266 19.6219 15.9813 21.5859 15.8313V14.3547C21.5859 13.7078 22.1109 13.1828 22.7578 13.1828C23.4047 13.1828 23.9297 13.7078 23.9297 14.3547V15.8203H25.3937C26.0406 15.8203 26.5656 16.3453 26.5656 16.9922C26.5656 17.6391 26.0406 18.1641 25.3937 18.1641H21.8781C21.0703 18.1641 20.4125 18.8219 20.4125 19.6297C20.4125 20.4375 21.0703 21.0953 21.8781 21.0953H23.6359C25.7375 21.0953 27.4453 22.8047 27.4453 24.9047C27.4453 26.9063 25.8937 28.5516 23.9297 28.7016V30.1781C23.9297 30.825 23.4047 31.35 22.7578 31.35C22.1109 31.35 21.5859 30.825 21.5859 30.1781V28.7125H20.1219C19.475 28.7125 18.95 28.1875 18.95 27.5406C18.95 26.8938 19.475 26.3688 20.1219 26.3688H23.6375C24.4453 26.3688 25.1031 25.711 25.1031 24.9031C25.1031 24.0953 24.4453 23.4375 23.6375 23.4375Z" fill="#DDDFEB"/>
<path fill-rule="evenodd" clip-rule="evenodd" d="M66.2422 21.7266C63.9344 16.4547 58.7344 13.0469 52.9922 13.0469C51.9156 13.0469 51.0391 13.9219 51.0391 14.9984C51.0391 16.075 51.9156 16.9516 52.9922 16.9516C58.8078 16.9516 63.5391 21.6828 63.5391 27.4984C63.5391 28.2922 64.0125 29 64.7453 29.3031C64.9844 29.4016 65.2344 29.4516 65.4922 29.4516C66.0141 29.4516 66.5047 29.2484 66.8734 28.8797L71.5609 24.1922C72.3219 23.4297 72.3219 22.1906 71.5609 21.4297C70.7984 20.6687 69.5594 20.6687 68.7984 21.4297L68.1437 22.0844C67.8703 22.3594 67.4797 22.4797 67.0984 22.4078C66.7172 22.3359 66.3969 22.0813 66.2422 21.7266Z" fill="#DDDFEB"/>
<path fill-rule="evenodd" clip-rule="evenodd" d="M14.741 58.2735C17.0488 63.5453 22.2488 66.9531 27.991 66.9531C29.0676 66.9531 29.9441 66.0781 29.9441 65.0016C29.9441 63.925 29.0676 63.0485 27.991 63.0485C22.1754 63.0485 17.4441 58.3172 17.4441 52.5016C17.4441 51.7078 16.9707 51 16.2379 50.6969C15.9988 50.5985 15.7488 50.5485 15.491 50.5485C14.9691 50.5485 14.4785 50.7516 14.1098 51.1203L9.42227 55.8078C8.66133 56.5703 8.66133 57.8094 9.42227 58.5703C10.1848 59.3313 11.4238 59.3313 12.1848 58.5703L12.8395 57.9156C13.0613 57.6938 13.3598 57.5719 13.6676 57.5719C13.7395 57.5719 13.8129 57.5781 13.8848 57.5922C14.266 57.6641 14.5863 57.9188 14.741 58.2735Z" fill="#DDDFEB"/>
<path fill-rule="evenodd" clip-rule="evenodd" d="M38.3047 57.7344C38.3047 68.7188 47.2422 77.6562 58.2266 77.6562C69.2109 77.6562 78.1484 68.7188 78.1484 57.7344C78.1484 46.75 69.2109 37.8125 58.2266 37.8125C47.2422 37.8125 38.3047 46.75 38.3047 57.7344ZM58.2266 42.5C49.8266 42.5 42.9922 49.3344 42.9922 57.7344C42.9922 66.1344 49.8266 72.9688 58.2266 72.9688C66.6266 72.9688 73.4609 66.1344 73.4609 57.7344C73.4609 49.3344 66.6266 42.5 58.2266 42.5ZM58.2266 70.625C51.1187 70.625 45.3359 64.8422 45.3359 57.7344C45.3359 50.6266 51.1187 44.8438 58.2266 44.8438C65.3344 44.8438 71.1172 50.6266 71.1172 57.7344C71.1172 64.8422 65.3344 70.625 58.2266 70.625ZM63.4891 55.0969C63.4891 55.7844 63.3062 56.4282 62.9859 56.986C64.2109 57.6204 65.0516 58.8985 65.0516 60.3704C65.0516 62.4719 63.3422 64.1797 61.2422 64.1797H60.8516V65.6454C60.8516 66.2922 60.3266 66.8172 59.6797 66.8172C59.0328 66.8172 58.5078 66.2922 58.5078 65.6454V64.1797H57.3359V65.6454C57.3359 66.2922 56.8109 66.8172 56.1641 66.8172C55.5172 66.8172 54.9922 66.2922 54.9922 65.6454V64.1797H53.8203C53.1734 64.1797 52.6484 63.6547 52.6484 63.0079C52.6484 62.361 53.1734 61.836 53.8203 61.836H54.9922V53.6329H53.8203C53.1734 53.6329 52.6484 53.1079 52.6484 52.461C52.6484 51.8141 53.1734 51.2891 53.8203 51.2891H54.9922V49.8235C54.9922 49.1766 55.5172 48.6516 56.1641 48.6516C56.8109 48.6516 57.3359 49.1766 57.3359 49.8235V51.2891H58.5078V49.8235C58.5078 49.1766 59.0328 48.6516 59.6797 48.6516C60.3266 48.6516 60.8516 49.1766 60.8516 49.8235V51.4735C62.3813 51.9688 63.4891 53.4063 63.4891 55.0969ZM61.1453 55.0985C61.1453 54.2907 60.4875 53.6329 59.6797 53.6329V53.6344H57.3359V56.5641H59.6797C60.4875 56.5641 61.1453 55.9063 61.1453 55.0985ZM57.3359 61.836H61.2422C62.05 61.836 62.7078 61.1797 62.7078 60.3719C62.7078 59.5641 62.05 58.9063 61.2422 58.9063H57.3359V61.836Z" fill="#DDDFEB"/>
</svg>
