<svg width="81" height="76" viewBox="0 0 81 76" fill="none" xmlns="http://www.w3.org/2000/svg">
<path d="M68.2953 37.2391H78.1562C79.45 37.2391 80.5 36.1906 80.5 34.8953C80.5 33.6016 79.45 32.5516 78.1562 32.5516H69.2266C70.35 25.4703 69.8281 20.6813 69.7984 20.4234C69.6922 19.4969 69.0469 18.7219 68.1562 18.45C64.5953 17.3594 61.4922 16.2531 58.7922 15.1687V9.375H66.8406C67.8078 12.1031 70.4141 14.0625 73.4688 14.0625C77.3453 14.0625 80.5 10.9078 80.5 7.03125C80.5 3.15313 77.3453 0 73.4688 0C70.4141 0 67.8078 1.95937 66.8406 4.6875H56.4484C55.1531 4.6875 54.1047 5.73594 54.1047 7.03125V13.1297C45.4172 9.02812 42.5375 5.66406 42.3641 5.45469C41.4277 4.16641 39.5731 4.16531 38.6359 5.45469C38.4625 5.66406 35.5828 9.02812 26.8953 13.1297V7.03125C26.8953 5.73594 25.8469 4.6875 24.5516 4.6875H14.1594C13.1922 1.95937 10.5859 0 7.53125 0C3.65469 0 0.5 3.15313 0.5 7.03125C0.5 10.9078 3.65469 14.0625 7.53125 14.0625C10.5859 14.0625 13.1922 12.1031 14.1594 9.375H22.2078V15.1687C19.5078 16.2531 16.4047 17.3594 12.8438 18.45C11.9531 18.7219 11.3078 19.4969 11.2016 20.4234C11.1719 20.6813 10.65 25.4703 11.7734 32.5516H2.84375C1.55 32.5516 0.5 33.6016 0.5 34.8953C0.5 36.1906 1.55 37.2391 2.84375 37.2391H12.7047C13.2167 39.3714 13.8152 41.4209 14.6125 43.6531H8.17344C6.87969 43.6531 5.82969 44.7016 5.82969 45.9969C5.82969 47.2906 6.87969 48.3406 8.17344 48.3406H16.5031C18.537 52.8378 21.0122 56.9027 23.9422 60.6953H14.1594C13.1922 57.9672 10.5859 56.0078 7.53125 56.0078C3.65469 56.0078 0.5 59.1625 0.5 63.0391C0.5 66.9156 3.65469 70.0703 7.53125 70.0703C10.5859 70.0703 13.1922 68.1109 14.1594 65.3828H27.9391C31.2406 68.9031 34.9891 72.1359 39.1594 75.0437C39.9658 75.6062 41.0344 75.6062 41.8406 75.0437C46.0109 72.1359 49.7594 68.9031 53.0609 65.3828H66.8406C67.8078 68.1109 70.4141 70.0703 73.4688 70.0703C77.3453 70.0703 80.5 66.9156 80.5 63.0391C80.5 59.1625 77.3453 56.0078 73.4688 56.0078C70.4141 56.0078 67.8078 57.9672 66.8406 60.6953H57.0578C59.9808 56.9117 62.4583 52.8481 64.4969 48.3406H72.8266C74.1203 48.3406 75.1703 47.2906 75.1703 45.9969C75.1703 44.7016 74.1203 43.6531 72.8266 43.6531H66.3875C67.1839 41.4236 67.7825 39.3741 68.2953 37.2391ZM53.3969 49.2453C53.3969 51.6016 51.4813 53.5172 49.125 53.5172H31.875C29.5188 53.5172 27.6031 51.6016 27.6031 49.2453V35.8234C27.6031 33.9609 28.8 32.375 30.4656 31.7906V30.2656C30.4656 24.7328 34.9672 20.2313 40.5 20.2313C46.0328 20.2313 50.5344 24.7328 50.5344 30.2656V31.7906C52.2 32.375 53.3969 33.9609 53.3969 35.8234V49.2453Z" fill="#DDDFEB"/>
<path d="M32.2891 36.239V48.8296H48.7078V36.239H32.2891ZM42.8422 43.3609C42.8422 44.6562 41.7922 45.7046 40.4984 45.7046C39.2047 45.7046 38.1547 44.6562 38.1547 43.3609V41.7078C38.1547 40.4125 39.2047 39.364 40.4984 39.364C41.7922 39.364 42.8422 40.4125 42.8422 41.7078V43.3609Z" fill="#DDDFEB"/>
<path d="M45.8461 30.2656V31.5515H35.1523V30.2656C35.1523 27.3171 37.5508 24.9187 40.4992 24.9187C43.4477 24.9187 45.8461 27.3171 45.8461 30.2656Z" fill="#DDDFEB"/>
</svg>
