<svg width="81" height="80" viewBox="0 0 81 80" fill="none" xmlns="http://www.w3.org/2000/svg">
<path d="M72.5065 35.6667L67.8398 30.3333C66.8398 29.3333 66.1732 27.3333 66.1732 26V20.6667C66.1732 17 63.1732 14.3333 59.8398 14.3333H54.1732C52.8398 14.3333 50.8398 13.6667 49.8398 12.6667L44.5065 8C42.1732 6 38.5065 6 36.1732 8L31.1732 12.6667C30.1732 13.6667 28.1732 14.3333 26.8398 14.3333H21.1732C17.5065 14.3333 14.8398 17.3333 14.8398 20.6667V26.3333C14.8398 27.6667 14.1732 29.6667 13.1732 30.6667L8.83984 36C6.83984 38.3333 6.83984 42 8.83984 44.3333L13.1732 49.6667C14.1732 50.6667 14.8398 52.6667 14.8398 54V59.6667C14.8398 63.3333 17.8398 66 21.1732 66H26.8398C28.1732 66 30.1732 66.6667 31.1732 67.6667L36.5065 72.3333C38.8398 74.3333 42.5065 74.3333 44.8398 72.3333L50.1732 67.6667C51.1732 66.6667 53.1732 66 54.5065 66H60.1732C63.8398 66 66.5065 63 66.5065 59.6667V54C66.5065 52.6667 67.1732 50.6667 68.1732 49.6667L72.8398 44.3333C74.5065 42 74.5065 38 72.5065 35.6667ZM54.5065 33.6667L38.5065 49.6667C38.1732 50 37.5065 50.3333 36.8398 50.3333C36.1732 50.3333 35.5065 50 35.1732 49.6667L27.1732 41.6667C26.1732 40.6667 26.1732 39 27.1732 38C28.1732 37 29.8398 37 30.8398 38L37.1732 44.3333L50.8398 30C51.8398 29 53.5065 29 54.5065 30C55.5065 31 55.5065 32.6667 54.5065 33.6667Z" fill="#DDDFEB"/>
</svg>
