<svg width="81" height="80" viewBox="0 0 81 80" fill="none" xmlns="http://www.w3.org/2000/svg">
<path d="M40.4914 38.2437C28.9789 38.2437 19.6133 47.6093 19.6133 59.1218C19.6133 70.6343 28.9789 79.9999 40.4914 79.9999C52.0039 79.9999 61.3695 70.6343 61.3695 59.1218C61.3695 47.6093 52.0039 38.2437 40.4914 38.2437ZM38.7414 54.4983C39.8291 55.3605 41.9633 56.1615 43.518 56.7093C50.2473 59.001 49.5981 68.3565 42.9727 70.5468V73.7171H38.2852V70.7937C36.9492 70.6093 35.7977 70.1608 34.2711 69.1624L32.3102 67.8796L34.8758 63.9577C35.7702 64.5424 36.6084 65.2237 37.5722 65.6958C38.5586 66.1793 39.5334 66.2305 40.6134 66.2233C42.0309 66.2144 43.3181 65.1572 43.5641 63.7416C43.772 62.5449 43.0641 61.5207 41.9555 61.1296C41.1758 60.853 40.3883 60.564 39.6273 60.2499C38.2148 59.6671 36.8867 59.0015 35.8492 58.1874C32.0584 55.2146 33.9144 48.8269 38.2852 47.3499V44.3437H42.9727V47.0108C45.5695 47.5312 46.6953 48.4091 48.6055 49.3937L46.382 53.5202L44.318 52.4077C44.2977 52.3968 44.2727 52.3843 44.2445 52.3687C43.005 51.6521 39.1061 50.4951 38.5055 53.5093C38.4539 53.8577 38.4883 54.2999 38.7414 54.4983Z" fill="#DDDFEB"/>
<path d="M16.7659 32.1172V15.3595H5.79484V32.1172H0.492188L11.2805 45.8311L22.0686 32.1172H16.7659Z" fill="#DDDFEB"/>
<path d="M75.1878 32.1172V15.3595H64.2167V32.1172H58.9141L69.7022 45.8311L80.4905 32.1172H75.1878Z" fill="#DDDFEB"/>
<path d="M51.2836 16.7577H45.9808V0H35.0098V16.7577H29.707L40.4953 30.4716L51.2836 16.7577Z" fill="#DDDFEB"/>
</svg>
